<svg xmlns="http://www.w3.org/2000/svg" viewBox="0 0 100 100"><title>fast-07</title><g id="註解"><path d="M47.67,58.66a2.5,2.5,0,0,0-2.27-1.48l-9.06,0h0a2.5,2.5,0,0,0,0,5h3.52L34.38,68.3a2.5,2.5,0,0,0,1.86,4.16l9.06,0h0a2.5,2.5,0,0,0,0-5l-3.52,0,5.46-6.14A2.5,2.5,0,0,0,47.67,58.66Z"/><path d="M64.38,36.76a2.5,2.5,0,0,0-2.28-1.47H50.29a2.5,2.5,0,0,0,0,5h6.28l-8.19,9.31a2.5,2.5,0,0,0,1.88,4.15H62.07a2.5,2.5,0,0,0,0-5H55.79L64,39.44A2.5,2.5,0,0,0,64.38,36.76Z"/><path d="M84.57,38.08,56.12,15.41a9.8,9.8,0,0,0-12.24,0L15.43,38.08a10,10,0,0,0-3.2,11.16,9.78,9.78,0,0,0,7.23,6.44V79.74a7,7,0,0,0,7,7H73.54a7,7,0,0,0,7-7V55.67a9.78,9.78,0,0,0,7.23-6.44A10,10,0,0,0,84.57,38.08ZM78.45,48.89H73.54V79.74H26.46V48.89H21.55a3,3,0,0,1-1.76-5.34L48.24,20.88a2.8,2.8,0,0,1,3.51,0L80.21,43.55A3,3,0,0,1,78.45,48.89Z"/></g></svg>