<?xml version="1.0" encoding="utf-8"?>
<!-- Generator: Adobe Illustrator 24.0.1, SVG Export Plug-In . SVG Version: 6.00 Build 0)  -->
<svg version="1.1" id="圖層_1" xmlns="http://www.w3.org/2000/svg" xmlns:xlink="http://www.w3.org/1999/xlink" x="0px" y="0px"
	 viewBox="0 0 100 100" style="enable-background:new 0 0 100 100;" xml:space="preserve">
<title>magnifier</title>
<g>
	<path d="M7.4,23H49c2.5,6.5,8.7,11.1,16.1,11.1S78.7,29.4,81.2,23h11.4c3.6,0,6.5-2.6,6.5-5.9c0-3.3-2.9-5.9-6.5-5.9H81.1
		C78.6,4.7,72.4,0,65,0c-7.4,0-13.6,4.5-16,11.1H7.4c-3.6,0-6.5,2.6-6.5,5.9C0.9,20.4,3.8,23,7.4,23z M65.1,10.9
		c3.4,0,6.2,2.8,6.2,6.2s-2.8,6.2-6.2,6.2s-6.2-2.8-6.2-6.2S61.7,10.9,65.1,10.9z"/>
	<path d="M92.6,44H48.1c-2.5-6.5-8.7-11.1-16.1-11.1S18.4,37.6,15.9,44H7.4c-3.6,0-6.5,2.6-6.5,5.9c0,3.3,2.9,5.9,6.5,5.9H16
		C18.5,62.3,24.7,67,32.1,67s13.6-4.7,16.1-11.1h44.4c3.6,0,6.5-2.6,6.5-5.9C99.1,46.6,96.2,44,92.6,44z M32.1,56.1
		c-3.4,0-6.2-2.8-6.2-6.2s2.8-6.2,6.2-6.2s6.2,2.8,6.2,6.2C38.2,53.4,35.4,56.1,32.1,56.1z"/>
	<path d="M92.6,76.9H81.1c-2.5-6.5-8.7-11.1-16.1-11.1c-7.4,0-13.6,4.7-16.1,11.1H7.4c-3.6,0-6.5,2.6-6.5,5.9s2.9,5.9,6.5,5.9H49
		c2.3,6.6,8.7,11.3,16.1,11.3s13.6-4.7,16.1-11.1h11.4c3.6,0,6.5-2.6,6.5-5.9C99.1,79.5,96.2,76.9,92.6,76.9z M65.1,89
		c-3.4,0-6.2-2.8-6.2-6.2s2.8-6.2,6.2-6.2s6.2,2.8,6.2,6.2C71.2,86.2,68.4,89,65.1,89z"/>
</g>
</svg>
