<svg xmlns="http://www.w3.org/2000/svg" viewBox="0 0 100 100"><defs><style>.cls-1{fill:#6a9c78;}</style></defs><title>attraction</title><g id="註解"><path class="cls-1" d="M90.28,78.77l-7.27-7a21.12,21.12,0,1,0-4.64,4.85l7.27,7a3.36,3.36,0,1,0,4.64-4.85ZM55.66,70.23A14.4,14.4,0,1,1,76,69.78h0a14.4,14.4,0,0,1-20.37.45Z"/><path class="cls-1" d="M74.05,55.67l-16.91,8.2a9.34,9.34,0,0,0,2,2.75,9.43,9.43,0,0,0,2,1.45L74.9,61.38A9.5,9.5,0,0,0,75,59.62,9.37,9.37,0,0,0,74.05,55.67Z"/><path class="cls-1" d="M42.1,71.17,31.24,76.43l-5-10.37.07-.12,6.31-14.36,7.64,2.19a26,26,0,0,1,1.83-5.21L31.79,45.62a2.76,2.76,0,0,0-3.28,1.54L23.06,59.57,15.12,43.21l44-21.32,5.74,11.84a26.29,26.29,0,0,1,6.41.59L62.83,17a2.76,2.76,0,0,0-3.68-1.28L10.24,39.46A2.76,2.76,0,0,0,9,43.14L27.49,81.32a2.76,2.76,0,0,0,3.68,1.28L45,75.88A25.89,25.89,0,0,1,42.1,71.17Z"/></g></svg>