<?xml version="1.0" encoding="utf-8"?>
<!-- Generator: Adobe Illustrator 21.0.0, SVG Export Plug-In . SVG Version: 6.00 Build 0)  -->
<svg version="1.1" id="圖層_1" xmlns="http://www.w3.org/2000/svg" xmlns:xlink="http://www.w3.org/1999/xlink" x="0px" y="0px"
	 viewBox="0 0 100 100" style="enable-background:new 0 0 100 100;" xml:space="preserve">
<style type="text/css">
	.st0{fill:#4C4C4C;}
</style>
<path class="st0" d="M100,50.4c0-13.4-5.2-25.9-14.6-35.4C75.9,5.7,63.4,0.4,50,0.4S24.1,5.7,14.6,15.1C5.2,24.5,0,37.1,0,50.4v23.7
	c0,13.4,10.9,24.3,24.3,24.3c1.6,0,2.9-1.3,2.9-2.9V52.8c0-1.6-1.3-2.9-2.9-2.9c-7.4,0-14,3.3-18.5,8.6v-8C5.8,26.1,25.6,6.2,50,6.2
	s44.2,19.8,44.2,44.2c0,0.2,0,0.4,0.1,0.6c0,0.2-0.1,0.4-0.1,0.6v8C89.8,54.3,83.1,51,75.7,51c-1.6,0-2.9,1.3-2.9,2.9v42.7
	c0,1.6,1.3,2.9,2.9,2.9c13.4,0,24.3-10.9,24.3-24.3V51.6c0-0.2,0-0.4-0.1-0.6C100,50.8,100,50.6,100,50.4z M21.4,92.4
	c-1.3-0.2-2.5-0.5-3.7-1V56.9c1.2-0.4,2.4-0.8,3.7-1V92.4z M78.6,57c1.3,0.2,2.5,0.6,3.7,1v34.5c-1.2,0.5-2.4,0.8-3.7,1V57z"/>
</svg>
