<?xml version="1.0" encoding="utf-8"?>
<!-- Generator: Adobe Illustrator 24.0.1, SVG Export Plug-In . SVG Version: 6.00 Build 0)  -->
<svg version="1.1" id="圖層_1" xmlns="http://www.w3.org/2000/svg" xmlns:xlink="http://www.w3.org/1999/xlink" x="0px" y="0px"
	 viewBox="0 0 100 100" style="enable-background:new 0 0 100 100;" xml:space="preserve">
<style type="text/css">
	.st0{fill-rule:evenodd;clip-rule:evenodd;fill:#231815;}
</style>
<path class="st0" d="M69.5,52.4c6.3-5.5,10.3-13.5,10.3-22.6C79.9,13.4,66.5,0,50,0C33.5,0,20.1,13.4,20.1,29.9
	c0,9,4,17.1,10.3,22.6C15.6,59.8,4.9,75.2,3.6,93.5c-0.1,1.7,0.5,3.3,1.6,4.5C6.4,99.3,8,100,9.7,100h80.7c1.7,0,3.3-0.7,4.4-1.9
	c1.1-1.2,1.7-2.9,1.6-4.5C95.1,75.2,84.4,59.8,69.5,52.4z M50,12.1c9.8,0,17.8,8,17.8,17.8s-8,17.8-17.8,17.8
	c-9.8,0-17.8-8-17.8-17.8S40.2,12.1,50,12.1z M16.7,87.9c3.8-16.1,17.5-28,33.3-28c15.9,0,29.5,11.9,33.3,28H16.7z"/>
</svg>
