<?xml version="1.0" encoding="utf-8"?>
<!-- Generator: Adobe Illustrator 24.0.1, SVG Export Plug-In . SVG Version: 6.00 Build 0)  -->
<svg version="1.1" id="圖層_1" xmlns="http://www.w3.org/2000/svg" xmlns:xlink="http://www.w3.org/1999/xlink" x="0px" y="0px"
	 viewBox="0 0 100 100" style="enable-background:new 0 0 100 100;" xml:space="preserve">
<g>
	<path d="M6.9,54.5l41.6,43.6c2.4,2.5,6.2,2.5,8.6,0c2.4-2.5,2.4-6.5,0-9l-37.4-39l37.4-39.2c2.4-2.5,2.4-6.5,0-9
		c-2.4-2.5-6.2-2.5-8.6,0L6.9,45.5C5.7,46.7,5,48.3,5,50S5.7,53.3,6.9,54.5z"/>
	<path d="M42.3,54.5l41.6,43.6c2.4,2.5,6.2,2.5,8.6,0s2.4-6.5,0-9l-37.4-39l37.4-39.2c2.4-2.5,2.4-6.5,0-9c-2.4-2.5-6.2-2.5-8.6,0
		L42.3,45.5c-1.2,1.2-1.8,2.8-1.8,4.5S41.2,53.3,42.3,54.5z"/>
</g>
</svg>
