<?xml version="1.0" encoding="utf-8"?>
<!-- Generator: Adobe Illustrator 21.0.0, SVG Export Plug-In . SVG Version: 6.00 Build 0)  -->
<svg version="1.1" id="圖層_1" xmlns="http://www.w3.org/2000/svg" xmlns:xlink="http://www.w3.org/1999/xlink" x="0px" y="0px"
	 viewBox="0 0 100 100" style="enable-background:new 0 0 100 100;" xml:space="preserve">
<title>traffic-map-icom</title>
<path d="M62.3,28c3.9,0,7-3.2,7-7s-3.1-7-7-7s-7,3.2-7,7S58.4,28,62.3,28z M25.4,50.8c-9.8,0-17.6,7.8-17.6,17.6S15.6,86,25.4,86
	s17.6-7.8,17.6-17.6S35.2,50.8,25.4,50.8z M25.4,80.8c-6.7,0-12.3-5.7-12.3-12.3s5.7-12.3,12.3-12.3s12.3,5.7,12.3,12.3
	S32.1,80.8,25.4,80.8z M45.8,45.6l8.4-8.4l2.8,2.8c4.6,4.6,10.6,7.3,17.9,7.3v-7c-5.2,0-9.5-2.1-12.7-5.2l-6.7-6.7
	c-1.8-1.4-3.5-2.1-5.7-2.1c-2.1,0-3.9,0.7-4.9,2.1l-9.8,9.8c-1.4,1.4-2.1,3.2-2.1,4.9c0,2.1,0.7,3.9,2.1,4.9l11.2,9.9v17.6h7V53.7
	L45.8,45.6z M74.6,50.8c-9.9,0-17.6,7.8-17.6,17.6s7.8,17.6,17.6,17.6s17.6-7.7,17.6-17.5S84.4,50.8,74.6,50.8z M74.6,80.8
	c-6.7,0-12.3-5.7-12.3-12.3S68,56.1,74.6,56.1c6.7,0,12.3,5.7,12.3,12.3S81.3,80.8,74.6,80.8z"/>
</svg>
