<svg xmlns="http://www.w3.org/2000/svg" viewBox="0 0 100 100"><title>calander</title><g id="註解"><path d="M74.46,21.94H68.13V19.77a3.5,3.5,0,0,0-7,0v2.17H38.88V19.77a3.5,3.5,0,0,0-7,0v2.17H25.54A10.3,10.3,0,0,0,15.25,32.23V73.44A10.3,10.3,0,0,0,25.54,83.73H74.46A10.3,10.3,0,0,0,84.75,73.44V32.23A10.3,10.3,0,0,0,74.46,21.94Zm-48.92,7h6.34V30a3.5,3.5,0,0,0,7,0V28.94H61.13V30a3.5,3.5,0,0,0,7,0V28.94h6.34a3.29,3.29,0,0,1,3.29,3.29v4.88H22.25V32.23A3.29,3.29,0,0,1,25.54,28.94ZM74.46,76.73H25.54a3.29,3.29,0,0,1-3.29-3.29V44.11h55.5V73.44A3.29,3.29,0,0,1,74.46,76.73Z"/><circle cx="35.37" cy="52.75" r="3.91"/><circle cx="50" cy="52.75" r="3.91"/><circle cx="64.62" cy="52.75" r="3.91"/><circle cx="35.37" cy="66.63" r="3.91"/><circle cx="50" cy="66.63" r="3.91"/><circle cx="64.62" cy="66.63" r="3.91"/></g></svg>