<?xml version="1.0" encoding="utf-8"?>
<!-- Generator: Adobe Illustrator 24.0.1, SVG Export Plug-In . SVG Version: 6.00 Build 0)  -->
<svg version="1.1" id="圖層_1" xmlns="http://www.w3.org/2000/svg" xmlns:xlink="http://www.w3.org/1999/xlink" x="0px" y="0px"
	 viewBox="0 0 100 100" style="enable-background:new 0 0 100 100;" xml:space="preserve">
<title>calander</title>
<path d="M83.5,74.9c0.5,0,0.8,0.4,0.8,0.8v9.9c0,0.5-0.4,0.8-0.8,0.8H72c-0.5,0-0.8-0.4-0.8-0.8v-9.9c0-0.5,0.4-0.8,0.8-0.8H83.5z
	 M64.9,74.9c0.5,0,0.8,0.4,0.8,0.8v9.9c0,0.5-0.4,0.8-0.8,0.8H53.4c-0.5,0-0.8-0.4-0.8-0.8v-9.9c0-0.5,0.4-0.8,0.8-0.8H64.9z
	 M46.2,74.9c0.5,0,0.8,0.4,0.8,0.8v9.9c0,0.5-0.4,0.8-0.8,0.8H34.6c-0.5,0-0.8-0.4-0.8-0.8v-9.9c0-0.5,0.4-0.8,0.8-0.8H46.2z
	 M27.4,74.9c0.5,0,0.8,0.4,0.8,0.8v9.9c0,0.5-0.4,0.8-0.8,0.8H15.9c-0.5,0-0.8-0.4-0.8-0.8v-9.9c0-0.5,0.4-0.8,0.8-0.8H27.4z
	 M72,70.2c-0.5,0-0.8-0.4-0.8-0.8v-9.9c0-0.5,0.4-0.8,0.8-0.8h11.5c0.5,0,0.8,0.4,0.8,0.8v9.9c0,0.5-0.4,0.8-0.8,0.8H72z M53.2,70.2
	c-0.5,0-0.8-0.4-0.8-0.8v-9.9c0-0.5,0.4-0.8,0.8-0.8h11.5c0.5,0,0.8,0.4,0.8,0.8v9.9c0,0.5-0.4,0.8-0.8,0.8H53.2z M34.6,70.2
	c-0.5,0-0.8-0.4-0.8-0.8v-9.9c0-0.5,0.4-0.8,0.8-0.8h11.5c0.5,0,0.8,0.4,0.8,0.8v9.9c0,0.5-0.4,0.8-0.8,0.8H34.6z M15.9,70.2
	c-0.5,0-0.8-0.4-0.8-0.8v-9.9c0-0.5,0.4-0.8,0.8-0.8h11.5c0.5,0,0.8,0.4,0.8,0.8v9.9c0,0.5-0.4,0.8-0.8,0.8H15.9z M72,53.8
	c-0.5,0-0.8-0.4-0.8-0.8v-9.9c0-0.5,0.4-0.8,0.8-0.8h11.5c0.5,0,0.8,0.4,0.8,0.8V53c0,0.5-0.4,0.8-0.8,0.8H72z M53.2,53.8
	c-0.5,0-0.8-0.4-0.8-0.8v-9.9c0-0.5,0.4-0.8,0.8-0.8h11.5c0.5,0,0.8,0.4,0.8,0.8V53c0,0.5-0.4,0.8-0.8,0.8H53.2z M93.6,92.9
	C93.6,92.9,93.6,92.9,93.6,92.9l0-58.5H6.4v58.5H93.6z M93.6,9c3.5,0,6.4,2.9,6.4,6.4v77.5c0,3.5-2.9,6.4-6.4,6.4H6.4
	c-3.5,0-6.4-2.9-6.4-6.4V15.4C0,11.8,2.9,9,6.4,9h10.9v10.9c0,3.9,3.2,7.2,7.1,7.2h1.4c3.9,0,7.1-3.2,7.1-7.2V9h34.8v10.8
	c0,3.9,3.2,7.2,7.1,7.2h1.4c3.9,0,7.1-2.2,7.1-6.1V9H93.6z M74.9,23.6c-2.2,0-3.9-1.8-3.9-4V7.8V4.7c0-2.2,1.8-4,3.9-4h1.4
	c2.2,0,3.9,1.8,3.9,4v3.1v11.9c0,2.2-1.8,4-3.9,4H74.9z M24.3,23.9c-2.2,0-3.9-1.8-3.9-4V9V4.9c0-2.2,1.8-4,3.9-4h1.4
	c2.2,0,3.9,1.8,3.9,4V9v10.9c0,2.2-1.8,4-3.9,4H24.3z"/>
</svg>
