<?xml version="1.0" encoding="utf-8"?>
<!-- Generator: Adobe Illustrator 21.0.0, SVG Export Plug-In . SVG Version: 6.00 Build 0)  -->
<svg version="1.1" id="图层_1" xmlns="http://www.w3.org/2000/svg" xmlns:xlink="http://www.w3.org/1999/xlink" x="0px" y="0px"
	 viewBox="0 0 100 100" style="enable-background:new 0 0 100 100;" xml:space="preserve">
<style type="text/css">
	.st0{fill:#6A9C78;}
</style>
<title>台東縣農會-元件(視覺延伸)</title>
<g>
	<path class="st0" d="M89.7,50.3c0-0.1,0-0.1,0-0.2c0-0.1-0.1-0.3-0.1-0.4v-0.1l-11-28.8C78.1,19.7,77.1,19,76,19H24.2
		c-1.1,0-2.2,0.7-2.5,1.8l-11,28.8v0.1c0,0.1-0.1,0.3-0.1,0.4c0,0.1,0,0.1,0,0.2c0,0.1,0,0.1,0,0.2v19.2c0,2.8,1.9,5.2,4.5,5.8v4.6
		c0,4,3.2,7.2,7.2,7.2H25c4,0,7.2-3.2,7.2-7.2v-4.4h36v4.4c0,4,3.2,7.2,7.2,7.2h2.9c4,0,7.2-3.2,7.2-7.2v-4.6
		c2.6-0.7,4.5-3.1,4.5-5.8V50.6C89.7,50.4,89.7,50.4,89.7,50.3z M84.2,69.7c0,0.3-0.2,0.6-0.6,0.6h-1.2H70.7H29.2H17.5h-1.2
		c-0.3,0-0.6-0.2-0.6-0.6V53.3h68.4V69.7z M25.9,24.5H74L83,47.8H17L25.9,24.5z M26.5,80.2c0,0.9-0.8,1.7-1.7,1.7H22
		c-0.9,0-1.7-0.8-1.7-1.7v-4.4h6.2V80.2z M79.7,80.2c0,0.9-0.8,1.7-1.7,1.7h-2.9c-0.9,0-1.7-0.8-1.7-1.7v-4.4h6.2V80.2z"/>
	<circle class="st0" cx="29.3" cy="61.7" r="4"/>
	<circle class="st0" cx="70.6" cy="61.7" r="4"/>
</g>
</svg>
