<?xml version="1.0" encoding="utf-8"?>
<!-- Generator: Adobe Illustrator 24.0.1, SVG Export Plug-In . SVG Version: 6.00 Build 0)  -->
<svg version="1.1" id="圖層_1" xmlns="http://www.w3.org/2000/svg" xmlns:xlink="http://www.w3.org/1999/xlink" x="0px" y="0px"
	 viewBox="0 0 100 100" style="enable-background:new 0 0 100 100;" xml:space="preserve">
<title>check</title>
<g id="註解">
	<path d="M98.1,18.3c-2.6-2.6-6.7-2.6-9.3,0c0,0,0,0,0,0L52.2,54.9l-18-18c-2.6-2.6-6.7-2.6-9.3,0s-2.6,6.7,0,9.3l22.7,22.6
		c2.6,2.6,6.7,2.6,9.3,0c0,0,0,0,0,0l41.2-41.2C100.6,25,100.6,20.8,98.1,18.3z"/>
	<path d="M90.7,60.6c-3.6,0-6.6,2.9-6.6,6.6v18.3h-71v-71h41.5c3.6,0,6.6-2.9,6.6-6.6s-2.9-6.6-6.6-6.6H6.6C2.9,1.4,0,4.3,0,7.9
		v84.1c0,3.6,2.9,6.6,6.6,6.6h84.1c3.6,0,6.6-2.9,6.6-6.6V67.2C97.2,63.6,94.3,60.6,90.7,60.6z"/>
</g>
</svg>
