<svg xmlns="http://www.w3.org/2000/svg" viewBox="0 0 100 100"><defs><style>.cls-1{fill:#6a9c78;}</style></defs><title>阿里山icon</title><g id="註解"><path class="cls-1" d="M79.3,20.7a41.5,41.5,0,1,0,0,58.7A41.5,41.5,0,0,0,79.3,20.7ZM50,74.8a6.2,6.2,0,1,1,6.2-6.2A6.2,6.2,0,0,1,50,74.8ZM64.5,59.7,61.8,62a.8.8,0,0,1-1.3-.3,11.5,11.5,0,0,0-21,0,.8.8,0,0,1-1.3.3l-2.7-2.4a.8.8,0,0,1-.2-1,16.6,16.6,0,0,1,29.4,0A.8.8,0,0,1,64.5,59.7ZM73,52.3l-2.7,2.3a.8.8,0,0,1-1.2-.2,22.6,22.6,0,0,0-38.1,0,.8.8,0,0,1-1.2.2L27,52.3a.8.8,0,0,1-.1-1.1,27.7,27.7,0,0,1,46.2,0A.8.8,0,0,1,73,52.3Zm5.3-4.7a.8.8,0,0,1-1.2-.2,33.1,33.1,0,0,0-54.2,0,.8.8,0,0,1-1.2.2L19,45.3a.8.8,0,0,1-.1-1.1,38.2,38.2,0,0,1,62.2,0,.8.8,0,0,1-.1,1.1Z"/></g></svg>