<?xml version="1.0" encoding="utf-8"?>
<!-- Generator: Adobe Illustrator 24.0.1, SVG Export Plug-In . SVG Version: 6.00 Build 0)  -->
<svg version="1.1" id="圖層_1" xmlns="http://www.w3.org/2000/svg" xmlns:xlink="http://www.w3.org/1999/xlink" x="0px" y="0px"
	 viewBox="0 0 100 100" style="enable-background:new 0 0 100 100;" xml:space="preserve">
<style type="text/css">
	.st0{fill-rule:evenodd;clip-rule:evenodd;}
</style>
<path class="st0" d="M78.8,50.5H51.7V23.7c0-2.1-1.7-3.9-3.9-3.9c-2.1,0-3.9,1.7-3.9,3.9v30.7c0,2.1,1.7,3.9,3.9,3.9
	c0.1,0,0.1,0,0.2,0c0.1,0,0.1,0,0.2,0h30.7c2.1,0,3.9-1.7,3.9-3.9S80.9,50.5,78.8,50.5z M50,0c27.6,0,50,22.4,50,50
	c0,27.6-22.4,50-50,50S0,77.6,0,50C0,22.4,22.4,0,50,0z"/>
</svg>
