<?xml version="1.0" encoding="utf-8"?>
<!-- Generator: Adobe Illustrator 24.0.1, SVG Export Plug-In . SVG Version: 6.00 Build 0)  -->
<svg version="1.1" id="圖層_1" xmlns="http://www.w3.org/2000/svg" xmlns:xlink="http://www.w3.org/1999/xlink" x="0px" y="0px"
	 viewBox="0 0 100 100" style="enable-background:new 0 0 100 100;" xml:space="preserve">
<title>clock</title>
<g id="註解">
	<path d="M74.2,48.9H52.4V27.2c0-3-2.4-5.6-5.6-5.6c-3,0-5.6,2.4-5.6,5.6v27.3c0.2,3,2.6,5.6,5.8,5.6h27.3c3,0,5.6-2.4,5.6-5.6
		C79.8,51.3,77.3,48.9,74.2,48.9L74.2,48.9z"/>
	<path d="M85.4,14.6c-19.6-19.6-51.2-19.6-70.8,0s-19.6,51.2,0,70.8s51.2,19.6,70.8,0C104.9,65.7,104.9,34.2,85.4,14.6z M77.6,77.4
		c-15.2,15.2-39.9,15.2-55,0s-15.2-39.9,0-55s39.7-15.2,55,0c15.2,15,15.3,39.4,0.3,54.7C77.7,77.2,77.6,77.4,77.6,77.4z"/>
</g>
</svg>
