<?xml version="1.0" encoding="utf-8"?>
<!-- Generator: Adobe Illustrator 21.0.0, SVG Export Plug-In . SVG Version: 6.00 Build 0)  -->
<svg version="1.1" id="图层_1" xmlns="http://www.w3.org/2000/svg" xmlns:xlink="http://www.w3.org/1999/xlink" x="0px" y="0px"
	 viewBox="0 0 100 100" style="enable-background:new 0 0 100 100;" xml:space="preserve">
<style type="text/css">
	.st0{fill-rule:evenodd;clip-rule:evenodd;}
</style>
<path class="st0" d="M58.4,20.7v20.9h20.9v16.9H58.4v20.9H41.6V58.4H20.7V41.6h20.9V20.7H58.4 M58.4,12.5H41.6
	c-4.5,0-8.2,3.7-8.2,8.2v12.7H20.7c-4.5,0-8.2,3.7-8.2,8.2v16.9c0,4.5,3.7,8.2,8.2,8.2h12.7v12.7c0,4.5,3.7,8.2,8.2,8.2h16.9
	c4.5,0,8.2-3.7,8.2-8.2V66.6h12.7c4.5,0,8.2-3.7,8.2-8.2V41.6c0-4.5-3.7-8.2-8.2-8.2H66.6V20.7C66.6,16.2,63,12.5,58.4,12.5"/>
</svg>
