<?xml version="1.0" encoding="utf-8"?>
<!-- Generator: Adobe Illustrator 21.0.0, SVG Export Plug-In . SVG Version: 6.00 Build 0)  -->
<svg version="1.1" id="圖層_1" xmlns="http://www.w3.org/2000/svg" xmlns:xlink="http://www.w3.org/1999/xlink" x="0px" y="0px"
	 viewBox="0 0 100 100" style="enable-background:new 0 0 100 100;" xml:space="preserve">
<style type="text/css">
	.st0{fill:#6A9C78;}
</style>
<title>magnifier</title>
<g>
	<path class="st0" d="M94,18.7H72.3v-13c0-3.2-2.6-5.8-5.8-5.8H33.3c-3.2,0-5.8,2.6-5.8,5.8v13H6c-3.2,0-5.8,2.6-5.8,5.8
		s2.6,5.8,5.8,5.8h4.3l4.9,64.5c0.3,3,2.8,5.3,5.8,5.3H79c3,0,5.5-2.3,5.8-5.3l4.9-64.5H94c3.2,0,5.8-2.6,5.8-5.8S97.2,18.7,94,18.7
		z M39.1,11.5h21.7v7.2H39.1V11.5z M73.8,88.5H26.2l-4.4-58.2h56.4L73.8,88.5z"/>
	<path class="st0" d="M39.4,78.5c3,0.2,5.6-2.1,5.8-5.1c0,0,0,0,0,0V44.7c0-3.2-2.6-5.8-5.8-5.8s-5.8,2.6-5.8,5.8v28.5
		c0.1,3,2.6,5.4,5.6,5.3C39.3,78.5,39.3,78.5,39.4,78.5z"/>
	<path class="st0" d="M60.4,78.5c3,0.2,5.6-2.1,5.8-5.1c0,0,0,0,0,0V44.7c0-3.2-2.6-5.8-5.8-5.8c-3.2,0-5.8,2.6-5.8,5.8v28.5
		c0.1,3,2.6,5.4,5.6,5.3C60.3,78.5,60.4,78.5,60.4,78.5z"/>
</g>
</svg>
