<?xml version="1.0" encoding="utf-8"?>
<!-- Generator: Adobe Illustrator 24.0.1, SVG Export Plug-In . SVG Version: 6.00 Build 0)  -->
<svg version="1.1" id="圖層_1" xmlns="http://www.w3.org/2000/svg" xmlns:xlink="http://www.w3.org/1999/xlink" x="0px" y="0px"
	 viewBox="0 0 100 100" style="enable-background:new 0 0 100 100;" xml:space="preserve">
<style type="text/css">
	.st0{fill-rule:evenodd;clip-rule:evenodd;}
</style>
<title>clock</title>
<path class="st0" d="M66.3,70.5c10.6,5.7,16.8,10.4,15.2,16.2c-1.5,5.6-8.7,7-22.9,7c-4.8,0-10.3-0.2-16.7-0.4
	C36.6,93.1,31,93,26.2,93c-1.2,0-2.2-0.4-3-1.1c-0.2,0-0.5,0.1-0.8,0.1c-1.3,0-2.5-0.5-3.3-1.4C15.9,87.1,0,70.1,0,59
	c0-12.4,10-22.4,22.4-22.4s22.4,10,22.4,22.4c0,7.6-7.4,17.9-13,24.7c3.4,0.1,7,0.2,10.5,0.3c8.6,0.3,21.8,0.7,28.1-0.2
	c-1.6-1.2-4.1-2.8-8.4-5.1C50.1,72.3,49.7,66,50.5,62.8c1.3-5.4,7.2-8.6,17.4-9.7c-5.6-6.9-12.7-16.9-12.7-24.3
	c0-12.4,10-22.4,22.4-22.4s22.4,10,22.4,22.4c0,11.1-15.9,28.2-19.1,31.5c-0.7,0.8-1.7,1.2-2.7,1.4C77.7,61.8,77,62,76.4,62
	c-11.5,0-15.9,2.1-16.8,3C59.9,65.8,61.6,67.9,66.3,70.5z M77.6,15.6c-7.2,0-13.1,5.9-13.1,13.1c0,4.6,6.9,14.2,13.1,21.4
	c6.2-7.2,13.1-16.8,13.1-21.4C90.7,21.5,84.8,15.6,77.6,15.6z M9.3,59c0,4.6,6.9,14.2,13.1,21.4c6.2-7.2,13.1-16.8,13.1-21.4
	c0-7.2-5.9-13.1-13.1-13.1C15.2,45.9,9.3,51.8,9.3,59z M82.7,28.1c0,2.8-2.3,5.1-5.1,5.1c-2.8,0-5.1-2.3-5.1-5.1
	c0-2.8,2.3-5.1,5.1-5.1C80.4,23,82.7,25.3,82.7,28.1z M27.5,58.4c0,2.8-2.3,5.1-5.1,5.1s-5.1-2.3-5.1-5.1s2.3-5.1,5.1-5.1
	S27.5,55.5,27.5,58.4z"/>
</svg>
