<?xml version="1.0" encoding="utf-8"?>
<!-- Generator: Adobe Illustrator 24.0.1, SVG Export Plug-In . SVG Version: 6.00 Build 0)  -->
<svg version="1.1" id="圖層_1" xmlns="http://www.w3.org/2000/svg" xmlns:xlink="http://www.w3.org/1999/xlink" x="0px" y="0px"
	 viewBox="0 0 100 100" style="enable-background:new 0 0 100 100;" xml:space="preserve">
<style type="text/css">
	.st0{fill-rule:evenodd;clip-rule:evenodd;fill:#231815;}
</style>
<path class="st0" d="M66.6,50c3.6,2.4,5.5,5.7,5.5,9.6c0,2.9-1.1,6.9-6.5,9.8c-2.8,1.5-6.3,2.5-10.4,3v5.5c0,1.1-0.9,1.9-1.9,1.9
	h-6.9c-1.1,0-1.9-0.9-1.9-1.9v-5.7c-3.5-0.5-6.6-1.5-9.5-3c-6.2-3.2-7.3-7.8-7.2-11.1c0-0.1,0-0.2,0-0.4l0-0.1
	c0-0.1,0.1-0.3,0.1-0.4l0.2-0.4c0.3-0.7,1-1.1,1.8-1.1h9.4c1.1,0,1.9,0.9,1.9,1.9v0.3c0,1.5,0.7,2.5,2.2,3.3c1.9,1,4.3,1.5,7.2,1.5
	c2.8,0,5-0.4,6.4-1.2c1.3-0.7,1.5-1.4,1.5-2c0-0.6-0.2-1.3-1.4-2.1c-0.9-0.6-3.1-1.5-7.8-2.5C43.2,53.7,38.4,52.1,35,50
	c-4.9-2.9-5.9-6.7-5.9-9.4c0-2.8,1.1-6.7,6.4-9.8c2.5-1.5,5.5-2.5,9-3v-5.7c0-1.1,0.9-1.9,1.9-1.9h6.9c1.1,0,1.9,0.9,1.9,1.9v5.6
	c4.1,0.5,7.5,1.7,10.3,3.5c5.3,3.4,6.3,7.6,6.2,10.5c0,0.1,0,0.3-0.1,0.4l0,0.1c0,0.1-0.1,0.2-0.1,0.4l-0.2,0.4
	c-0.3,0.7-1,1.1-1.8,1.1h-9.4c-1.1,0-1.9-0.9-1.9-1.9v-0.3c0-1.3-0.5-2.2-1.8-3c-1.5-1-3.7-1.5-6.4-1.5c-2.6,0-4.6,0.4-5.9,1.2
	c-1.3,0.8-1.4,1.5-1.4,2.1c0,0.3,0,0.9,1.5,1.7c1.1,0.6,3.5,1.5,8.5,2.6C58.7,46.1,63.4,47.8,66.6,50C66.6,50,66.6,50,66.6,50z
	 M85.3,14.6c19.5,19.5,19.5,51.2,0,70.7C75.5,95,62.7,99.9,49.9,99.9c-12.8,0-25.6-4.9-35.4-14.6C-5,65.8-5,34.1,14.5,14.6
	C24,5.1,36.6-0.1,49.9-0.1S75.8,5.1,85.3,14.6z M78,78c15.5-15.5,15.5-40.6,0-56.1c-7.5-7.5-17.5-11.6-28.1-11.6
	c-10.6,0-20.6,4.1-28.1,11.6C6.4,37.3,6.4,62.5,21.9,78C37.3,93.4,62.5,93.4,78,78z"/>
</svg>
