<?xml version="1.0" encoding="utf-8"?>
<!-- Generator: Adobe Illustrator 24.0.1, SVG Export Plug-In . SVG Version: 6.00 Build 0)  -->
<svg version="1.1" id="圖層_1" xmlns="http://www.w3.org/2000/svg" xmlns:xlink="http://www.w3.org/1999/xlink" x="0px" y="0px"
	 viewBox="0 0 100 100" style="enable-background:new 0 0 100 100;" xml:space="preserve">
<path d="M97.8,45.5c1.2,1.2,1.8,2.8,1.8,4.5s-0.7,3.3-1.8,4.5L56.2,98.1c-2.4,2.5-6.2,2.5-8.6,0s-2.4-6.5,0-9L85,49.9l-37.4-39
	c-2.4-2.5-2.4-6.5,0-9s6.2-2.5,8.6,0L97.8,45.5z M52.5,45.5c1.2,1.2,1.8,2.8,1.8,4.5s-0.7,3.3-1.8,4.5L10.8,98.1
	c-2.4,2.5-6.2,2.5-8.6,0s-2.4-6.5,0-9l37.4-39.2l-37.4-39c-2.4-2.5-2.4-6.5,0-9s6.2-2.5,8.6,0L52.5,45.5z"/>
</svg>
