<?xml version="1.0" encoding="utf-8"?>
<!-- Generator: Adobe Illustrator 24.0.1, SVG Export Plug-In . SVG Version: 6.00 Build 0)  -->
<svg version="1.1" id="圖層_1" xmlns="http://www.w3.org/2000/svg" xmlns:xlink="http://www.w3.org/1999/xlink" x="0px" y="0px"
	 viewBox="0 0 100 100" style="enable-background:new 0 0 100 100;" xml:space="preserve">
<title>download</title>
<g id="註解">
	<path d="M100,61.5c0-3.4-2.7-6.1-6.1-6.1l0,0c-3.4,0-6.1,2.7-6.1,6.1v22H12.2v-22c0-3.4-2.7-6.1-6.1-6.1S0,58.1,0,61.5v28.1
		c0,3.4,2.7,6.1,6.1,6.1h87.8c3.4,0,6.1-2.7,6.1-6.1L100,61.5z"/>
	<path d="M46.2,69.6c2.4,2.4,6.2,2.4,8.6,0c0,0,0,0,0,0l22.2-22.3c2.4-2.4,2.4-6.3,0-8.6c-2.4-2.4-6.3-2.4-8.6,0L56.1,51.1V10.4
		c0-3.4-2.7-6.1-6.1-6.1s-6.1,2.7-6.1,6.1V50L31.6,37.8c-2.4-2.4-6.3-2.4-8.6,0s-2.4,6.3,0,8.6L46.2,69.6z"/>
</g>
</svg>
