<?xml version="1.0" encoding="utf-8"?>
<!-- Generator: Adobe Illustrator 21.0.0, SVG Export Plug-In . SVG Version: 6.00 Build 0)  -->
<svg version="1.1" id="圖層_1" xmlns="http://www.w3.org/2000/svg" xmlns:xlink="http://www.w3.org/1999/xlink" x="0px" y="0px"
	 viewBox="0 0 100 100" style="enable-background:new 0 0 100 100;" xml:space="preserve">
<g>
	<path d="M77.4,9.5c0-5.2-4.3-9.5-9.5-9.5h-50c-5.2,0-9.5,4.3-9.5,9.5v66.7c0,5.2,4.3,9.5,9.5,9.5v-9.5V9.5h50H77.4z"/>
	<path d="M82.1,14.3h-50c-5.2,0-9.5,4.3-9.5,9.5v66.7c0,5.2,4.3,9.5,9.5,9.5h50c5.2,0,9.5-4.3,9.5-9.5V23.8
		C91.7,18.6,87.4,14.3,82.1,14.3z M82.1,90.5h-50V23.8h50V90.5z"/>
</g>
</svg>
