<?xml version="1.0" encoding="utf-8"?>
<!-- Generator: Adobe Illustrator 24.0.1, SVG Export Plug-In . SVG Version: 6.00 Build 0)  -->
<svg version="1.1" id="圖層_1" xmlns="http://www.w3.org/2000/svg" xmlns:xlink="http://www.w3.org/1999/xlink" x="0px" y="0px"
	 viewBox="0 0 100 100" style="enable-background:new 0 0 100 100;" xml:space="preserve">
<title>edit</title>
<g id="註解">
	<path d="M92.5,64.4c-2.8,0-5.1,2.3-5.1,5.1v20.3H11.8V14.2h20.2c2.8,0,5.1-2.3,5.1-5.1S34.9,4,32.1,4H6.7C3.9,4,1.6,6.3,1.6,9.1
		v85.8c0,2.8,2.3,5.1,5.1,5.1h85.8c2.8,0,5.1-2.3,5.1-5.1V69.5C97.6,66.7,95.3,64.4,92.5,64.4C92.5,64.4,92.5,64.4,92.5,64.4z"/>
	<path d="M31.8,51.6L25.7,77c-0.6,2.4,0.3,5,2.2,6.5c1.9,1.5,4.6,1.8,6.8,0.7l23.4-11.6c0.8-0.4,1.4-1,1.9-1.7l35.5-44.5
		c4.4-5.5,3.5-13.5-2-17.9l-7.1-5.7c-5.5-4.4-13.5-3.5-17.9,2c0,0,0,0,0,0L33,49.3C32.4,50,32,50.8,31.8,51.6z M39.9,61.8l6.6,5.2
		l-8.9,4.4L39.9,61.8z M66.1,24.3l11.1,8.9L55.1,60.8L44,52L66.1,24.3z M78.2,10.2c0.7-0.1,1.4,0.1,1.9,0.5l7.1,5.7
		c1.1,0.9,1.3,2.5,0.4,3.6l-4.1,5.1l-11.1-8.8l4.1-5.2C76.9,10.7,77.5,10.3,78.2,10.2z"/>
</g>
</svg>
