<svg xmlns="http://www.w3.org/2000/svg" viewBox="0 0 100 100">
  <path d="M77.66 16.5H22.34a5.84 5.84 0 0 0-5.84 5.84v55.32a5.84 5.84 0 0 0 5.84 5.84h30.51v-26h-8.78V47.21h8.84V45.9c.07-3.07-.07-6.17.26-9.21a11.62 11.62 0 0 1 11.62-10.45c2.8 0 5.59.13 8.39.2.51 0 .85.14.84.77v8.69h-1.24c-2 .06-4 0-6 .21a3.1 3.1 0 0 0-3.14 3.12c-.13 2.58 0 5.17 0 7.92h10c-.23 1.9-.43 3.63-.65 5.36-.18 1.4-.43 2.8-.56 4.2-.06.66-.34.79-.92.78h-7.94v26h14.09a5.84 5.84 0 0 0 5.84-5.84V22.34a5.84 5.84 0 0 0-5.84-5.84z" fill="#3b5998" fill-rule="evenodd"/>
</svg>
