<?xml version="1.0" encoding="utf-8"?>
<!-- Generator: Adobe Illustrator 24.0.1, SVG Export Plug-In . SVG Version: 6.00 Build 0)  -->
<svg version="1.1" id="圖層_1" xmlns="http://www.w3.org/2000/svg" xmlns:xlink="http://www.w3.org/1999/xlink" x="0px" y="0px"
	 viewBox="0 0 100 100" style="enable-background:new 0 0 100 100;" xml:space="preserve">
<style type="text/css">
	.st0{fill-rule:evenodd;clip-rule:evenodd;}
</style>
<title>clock</title>
<path class="st0" d="M91.4,72.9c-11.6-5.7-16.7-18-21.6-29.8c-3.3-8-6.8-16.2-12.3-22.3c1.3-1.1,2.5-2.4,3.3-4.1
	c1.4-2.8,1.5-6,0.5-8.9c-1-2.9-3.2-5.3-6-6.7h0c-5.8-2.8-12.8-0.3-15.6,5.5c-1.3,2.8-1.5,6-0.5,8.9c0.6,1.6,1.4,3,2.6,4.2L6,95.1
	c-0.8,1.7-0.1,3.8,1.6,4.6c0.5,0.2,1,0.3,1.5,0.3c1.3,0,2.5-0.7,3.1-2l17.1-35.9c7.3-0.2,13.1,4.1,19.7,9
	c7.8,5.8,17.2,12.9,31.4,12.9c3,0,6.3-0.3,9.8-1.1c2.2-0.5,3.9-2.2,4.2-4.5C94.6,76.1,93.4,73.9,91.4,72.9 M45.9,9.6
	c0.6-1.2,1.5-2,2.7-2.4c0.5-0.2,1.1-0.3,1.6-0.3c0.7,0,1.4,0.2,2.1,0.5h0c2.4,1.1,3.4,4,2.2,6.4c-1.1,2.4-4,3.4-6.4,2.2
	c-1.2-0.6-2-1.5-2.4-2.7C45.3,12.1,45.4,10.8,45.9,9.6 M53,65.6c-6.1-4.6-12.4-9.3-20.4-10.2l15.5-32.2c0.7,0.1,1.4,0.2,2.1,0.2
	c0,0,0,0,0,0c6,5.1,9.5,13.6,13.2,22.4c4.7,11.2,9.9,23.7,21,31C70.2,78.4,61.5,71.9,53,65.6"/>
</svg>
