<svg xmlns="http://www.w3.org/2000/svg" viewBox="0 0 100 100"><defs><style>.cls-1{fill:#6a9c78;}</style></defs><title>gift</title><g id="註解"><path class="cls-1" d="M59.67,44.61a3.5,3.5,0,0,0-3.5,3.5,6.17,6.17,0,0,1-12.33,0,3.5,3.5,0,0,0-7,0,13.17,13.17,0,0,0,26.33,0A3.5,3.5,0,0,0,59.67,44.61Z"/><path class="cls-1" d="M80.8,77.72l-5.31-39A7.47,7.47,0,0,0,68,31.61v-9a3.5,3.5,0,0,0-3.5-3.5H52.12V17.89a3.5,3.5,0,0,0-3.5-3.5H35.05a3.5,3.5,0,0,0-3.5,3.5V31.63a7.46,7.46,0,0,0-7,7.12l-5.31,39a3.48,3.48,0,0,0,0,.47,7.47,7.47,0,0,0,7.5,7.42H73.33a7.47,7.47,0,0,0,7.5-7.42A3.48,3.48,0,0,0,80.8,77.72ZM52.3,26.15H61v5.17H52.3ZM38.55,21.39h6.57v9.76H38.55ZM73.33,78.61H26.67a.5.5,0,0,1-.48-.31l5.28-38.8a3.48,3.48,0,0,0,0-.47.47.47,0,0,1,.5-.42H68a.47.47,0,0,1,.5.42,3.48,3.48,0,0,0,0,.47l5.28,38.8A.5.5,0,0,1,73.33,78.61Z"/></g></svg>