<?xml version="1.0" encoding="utf-8"?>
<!-- Generator: Adobe Illustrator 24.0.1, SVG Export Plug-In . SVG Version: 6.00 Build 0)  -->
<svg version="1.1" id="圖層_1" xmlns="http://www.w3.org/2000/svg" xmlns:xlink="http://www.w3.org/1999/xlink" x="0px" y="0px"
	 viewBox="0 0 100 100" style="enable-background:new 0 0 100 100;" xml:space="preserve">
<style type="text/css">
	.st0{fill:#231815;}
</style>
<path class="st0" d="M80.1,72.7H100l-0.8-5.1c-1.1-7.6-5.4-14.1-11.4-17.5c1.6-2.1,2.4-4.7,2.4-7.4c0-7-5.7-12.6-12.6-12.6
	c-4.7,0-8.8,2.6-11,6.4c0,0,0-0.1,0-0.1c0-9.6-7.8-17.3-17.4-17.3c-9.1,0-16.7,7.1-17.3,16c-2.3-3-6-5-10.1-5
	c-7,0-12.7,5.7-12.7,12.6c0,2.8,0.9,5.5,2.6,7.7c-5.8,3.5-9.9,9.8-11,17.3L0,72.7h19.2c-0.3,1.1-0.5,2.2-0.6,3.3L17.8,81h63.7
	l-0.8-5.1C80.6,74.9,80.4,73.8,80.1,72.7z M21.8,46.4c-2.1,0-3.8-1.7-3.8-3.8c0-2.1,1.7-3.8,3.8-3.8c2.1,0,3.8,1.7,3.8,3.8
	C25.6,44.7,23.9,46.4,21.8,46.4z M49.2,44.8c-4.7,0-8.5-3.8-8.5-8.5c0-4.7,3.8-8.5,8.5-8.5c4.7,0,8.5,3.8,8.5,8.5
	C57.7,41,53.9,44.8,49.2,44.8z M73,58l-0.2-0.2c0-0.1-0.1-0.1-0.1-0.2c1.6-0.9,3.4-1.4,5.2-1.4c4.6,0,8.7,3,11,7.6H76.8
	c-0.2-0.4-0.4-0.8-0.6-1.2c-0.1-0.1-0.2-0.3-0.2-0.4l-0.1-0.2c-0.3-0.5-0.7-1.1-1-1.6l-0.4-0.5C73.9,59.2,73.5,58.6,73,58z M29.4,70
	c1.6-3.9,4.1-7.2,7-9.8c3.9-3.3,8.5-5.1,13.2-5.1c4.9,0,9.6,1.8,13.5,5.3c1,0.9,2,2,2.9,3.1c1.5,1.9,2.8,4.1,3.8,6.4
	c0.3,0.7,0.6,1.5,0.8,2.2H28.6C28.8,71.4,29.1,70.7,29.4,70z M22.1,56.2c1.6,0,3.2,0.4,4.7,1.1c-0.1,0.1-0.1,0.1-0.2,0.2l-0.1,0.1
	c-0.5,0.6-1,1.3-1.5,2c-0.1,0.1-0.2,0.3-0.3,0.4l-0.1,0.1c-0.4,0.6-0.7,1.1-1.1,1.7l-0.1,0.2c-0.1,0.1-0.2,0.3-0.2,0.4l0,0
	c-0.3,0.4-0.5,0.9-0.7,1.3H11.1C13.4,59.2,17.6,56.2,22.1,56.2z M77.6,46.4c-2.1,0-3.8-1.7-3.8-3.8c0-2.1,1.7-3.8,3.8-3.8
	c2.1,0,3.8,1.7,3.8,3.8C81.4,44.7,79.7,46.4,77.6,46.4z M37.5,49.1c-1.3,0.6-2.6,1.3-3.8,2.1c-0.6-0.4-1.1-0.8-1.7-1.1
	c1.1-1.5,1.9-3.2,2.2-5.1C35.1,46.5,36.2,47.9,37.5,49.1z M67.6,50.3c-0.6,0.3-1.1,0.7-1.6,1.1c-1.5-1-3.1-1.9-4.7-2.6
	c1.6-1.5,2.8-3.3,3.7-5.2C65.2,46,66.1,48.4,67.6,50.3z"/>
</svg>
