<?xml version="1.0" encoding="utf-8"?>
<!-- Generator: Adobe Illustrator 21.0.0, SVG Export Plug-In . SVG Version: 6.00 Build 0)  -->
<svg version="1.1" id="圖層_1" xmlns="http://www.w3.org/2000/svg" xmlns:xlink="http://www.w3.org/1999/xlink" x="0px" y="0px"
	 viewBox="0 0 100 100" style="enable-background:new 0 0 100 100;" xml:space="preserve">
<path d="M70.4,11.9C84,11.9,95,22.9,95,36.5c0,4.5-1.2,8.7-3.3,12.3C87.4,56.2,50,86.6,50,86.6S12.4,56.1,8.1,48.6
	C6.1,45,5,40.9,5,36.5c0-13.6,11-24.6,24.6-24.6c8.5,0,15.9,4.3,20.4,10.8C54.4,16.2,61.9,11.9,70.4,11.9 M70.4,6.9
	c-7.7,0-14.9,3-20.4,8.1c-5.4-5.2-12.7-8.1-20.4-8.1C13.3,6.9,0,20.2,0,36.5C0,41.6,1.3,46.6,3.8,51C8.2,59,40.4,85.3,46.9,90.5
	l3.2,2.6l3.2-2.6c6.4-5.2,38.4-31.4,42.9-39.2c2.6-4.5,4-9.6,4-14.8C100,20.2,86.7,6.9,70.4,6.9L70.4,6.9z"/>
</svg>
