<?xml version="1.0" encoding="utf-8"?>
<!-- Generator: Adobe Illustrator 21.0.0, SVG Export Plug-In . SVG Version: 6.00 Build 0)  -->
<svg version="1.1" id="圖層_1" xmlns="http://www.w3.org/2000/svg" xmlns:xlink="http://www.w3.org/1999/xlink" x="0px" y="0px"
	 viewBox="0 0 100 100" style="enable-background:new 0 0 100 100;" xml:space="preserve">
<style type="text/css">
	.st0{fill:#282828;}
</style>
<g>
	<path class="st0" d="M78.3,91.6L77,91.2h-0.1c-4.6-1.6-7.6-6.1-7.3-11c0-0.3,0.1-0.5,0.3-0.7c-0.3-0.6,0.4-1.2,0-1.6
		c0.2-0.3,0.4-0.7,0.4-1.2c0-0.3,0.3-0.4,0.3-0.7s0.6-0.6,0.4-1s0.3-1.2,0.9-1.5c0.6-0.3,0.4-0.4,0.3-0.7c-0.1-0.3,0.4-0.6,0.4-1.2
		c0.2-0.1,0.3-0.3,0.3-0.6l0.4-0.3v-0.3c-0.3,0.1-1.2-0.1-1,0.6c0.1,0.7-0.1,0.4-0.4,0.4c-0.3,0-0.6,0.6-0.4,1.2s0,0.9-0.6,1.2
		c-0.2,0.5-0.5,0.9-0.9,1.2c-0.1,0.1,0,0.3-0.1,0.3c-0.1,0,0-0.7,0.3-1c0.3-0.3,0.7-1.6,1-2.5c0.3-0.9,0.4-1,0.6-1.3
		s0.4-0.9,0.6-1.5c0.1-0.6,0.6-1,0.6-1.8c0-0.7,0.3-1,0.6-1.2c0.4-0.8,0.8-1.5,1.3-2.2c0.3-0.1,0.1-0.6,0.4-0.9
		c0.3-0.3,0-0.9,0.4-1.2c0.4-0.3,0.6-0.9,1-1.2l0,0c0.6-0.6,1-1.5,1.9-1.5s0.4-0.1,0.7-0.3c0.3-0.1,0.3-0.1,0.1-0.3
		c-0.1-0.1,0.7-0.7,1-1.3c0.3-0.6,0.4-0.9,0.7-1.2c0.3-0.3,0.3-0.4,0.1-0.9c-0.1-0.4-0.3,0.4-0.4,0.6c-0.1,0.1-0.6,0.3-0.6,0.6
		c0,0.3,0,0.4-0.4,0.4c-0.4,0-0.4,0.4-0.3,0.7h-0.4c-0.3-0.4,0.1-0.7,0.1-1.3c0-0.6,0.4-0.3,0.3-0.7c-0.1-0.4-0.3,0.3-0.6,0.6h0.1
		c0-0.3,0-0.7,0.4-0.7c0.4,0,0.6-0.4,0.3-0.7s0.3-0.7,0.9-0.7s0-0.3-0.1-0.3h0.1v-0.4c0.3-0.3,0.7-0.6,1.2-0.7
		c-0.1-0.3,0.1-0.4,0.1-0.4s0.7-0.6,0.9-1.2c0.1-0.6,0.6-0.3,0.9-0.4c0.3-0.1,0.4-0.6,0.7-0.7c0-0.1,0-0.2,0-0.3
		c0.4-0.1,0.6-0.9,0.9-1.2c0.3-0.3,0.4-0.3,0.3-0.6s0.1-0.3,0.3-0.3l0,0c-0.1-0.1,0.1-0.1,0.3-0.3c0.1-0.1,1-0.7,0.9-1.6
		c-0.1-0.9-0.3,0.3-0.4,0l0.4-0.7l0,0v0.4h0.4l0.6-0.4c0-0.1,0-0.1-0.1-0.3h0.1c0.6,0.1,0.3-0.3,0.7-0.4v-0.3l0.3-0.3l0.6-0.3
		c0-0.3,0.3-0.3,0.3-0.6c0.4-0.5,0.6-1,0.7-1.6c0.4-0.1,0.1-0.6,0.6-0.7c0.4-0.1,0.4-0.1,0.3-0.4l0.3-0.3c0-0.3,0.1-0.4,0.1-0.6
		l0.4-0.4c0-0.3,0.3-0.6,0.4-0.9c0.3-0.6,0.6-1.1,0.9-1.8c0.4-0.3,0.3-0.9,0.3-1.3c-0.2-0.6-0.2-1.3-0.1-1.9c0-1.6-2.9-1-3.8-0.9H90
		c-0.1,0.4-0.7,0.3-1,0.6h-0.7c-0.1,0.3-0.7,0.3-1,0.4l-0.6,0.3l-0.9,0.3c-0.1,0.3-0.6,0-0.6,0.4h-0.6c-0.1,0.3-0.6,0.3-0.9,0.3
		s-0.3,0.4-0.6,0.4s-0.4,0-0.6,0.1c-0.1,0.1-0.9,0.1-1.3,0.1h-0.1c-0.4-0.1-0.3,0.1-0.6,0.3c-0.3,0.1-0.7,0.3-1.2,0.3l-0.7,0.4
		l-1,0.3c-0.1,0.1-0.4,0-0.6,0h-0.1c-0.4,0.4-1,0-1.5,0.3c-0.4,0.3-0.9-0.1-1,0.3h-0.6c-0.1,0-0.1,0.3-0.1,0.4l-1.5,0.3
		c-0.1,0.3-0.6,0-0.6,0.3h-1c0,0.1-0.1,0.1-0.1,0.1S70,38,69.7,38l0,0c-0.4,0.1-0.7,0.3-0.9,0.6h-0.6c-0.7-0.1-0.9,0.6-1.6,0.4
		s-0.7,0.1-0.9,0.4c-0.1,0.3-0.9,0.1-1.2,0.3c-0.3,0.1-0.7,0.3-1.2,0.3l0,0l-0.9,0.3c-0.3,0.4-1,0.3-1.3,0.6c-0.3,0.3-0.4,0-0.6,0.1
		c-0.1,0.1-0.4,0.1-0.6,0.3s-1,0.1-1.5,0.4c-0.4,0.3-0.3,0.3-0.7,0.3c-0.4,0-0.3,0.1-0.4,0.4h-0.7c-0.3,0.3-0.7,0-1.2,0.1
		c-0.4,0.1-0.6,0.3-0.6,0.7c0,0.4-0.4,0-0.6,0h-0.4c-0.3-0.1-0.4,0.3-0.7,0.3H53c0,0-0.1,0.3-0.1,0c-0.3,0-0.6,0.2-0.7,0.4
		c-0.1,0-0.6-0.3-0.7,0c-0.1,0.3-0.4,0.1-0.6,0.3c0,0.1,0,0.2-0.1,0.3c-0.4-0.1-0.7,0.1-1,0.1h-0.9v0.3c-0.3,0.1-0.1,0.4-0.6,0.3
		s-0.3-0.1-0.4-0.1c-0.1,0-0.9,0-1,0.4c-0.1,0.4-0.4,0.3-0.6,0.4c-0.1,0.1-1,0.1-1.3,0.6c-0.3,0.4-0.9,0.3-1.3,0.4
		c-0.4,0.1-0.6-0.1-0.7,0.3c-0.1,0.4-0.9,0.3-1.2,0.3c-0.3,0-0.7,0.1-0.7,0.4h-0.7l-1.3,0.6c-0.4,0-0.6,0.4-1,0.3l-1,0.4
		c0.1,0.4-0.4,0.1-0.4,0.3c0,0.1-0.4,0.1-0.4,0.3l-1,0.3c-0.1,0.3-0.4,0.1-0.6,0.3s-0.4,0-0.4,0.1c0,0.1-0.4,0.1-0.7,0.1
		s-0.9,0.3-1.3,0.6H31c-0.3,0.3-0.7,0.3-1,0.4l-0.7,0.3v0.3H31v-0.1h0.4c0.4,0.3,0.7-0.3,1.2-0.1h-0.3c-0.1,0.3,0.1,0.3,0.3,0.6h0.1
		c0.1,0,0,0.1,0,0.1l1.9-0.3c0.3,0.3,0.7,0,1.2,0.1h0.9c0.1,0.1,0.4,0.1,0.3,0.3h-0.1v0.3c0.1,0,0.4,0.1,0.4-0.1
		c0-0.3,0.3,0,0.4,0.1v-0.3h0.4c0.1,0,0.3,0,0.3-0.1h-0.3c0-0.1,0-0.1,0.1-0.3l0,0c0.3,0,0.7,0.1,0.4,0.6h-0.3v0.3h0.3
		c0.3,0.1,0.6-0.1,0.7,0.1h1v-0.3h0.7c0.1,0.1,0.3,0,0.4,0.1h0.4c-0.1-0.4,0.6-0.3,0.6-0.6h0.7c0.1-0.3,0.6,0.1,0.9-0.3h0.6
		c0.1,0,0.6,0,0.4-0.3h0.4c-0.1-0.4,0.4,0,0.4-0.1l0,0c0.3,0.1,0.1-0.1,0.4-0.3c0.3-0.1,0.4,0.3,0.7,0.3s0,0.1,0,0.1S47.1,53,47,53
		h-0.3c-0.1-0.1-0.1,0.1-0.3,0.3s-1.2,0.6-1.9,0.4c-0.7-0.1-0.1,0.3-0.1,0.4s-0.3-0.1-0.3,0.1h-0.3c0.1,0.3-0.4,0.4-0.1,0.7h0.1
		c0.1-0.1,0.4-0.1,0.4-0.3s0-0.3,0.3-0.3c0.3,0,0.6-0.3,0.9-0.4c0.3-0.1,0.6,0.1,0.7,0.3h-0.3v0.4c0.3-0.1,0.3,0.3,0.6,0.1
		s0.6,0.1,1,0.1h1c0.3,0,0.6-0.3,0.9-0.1c0.3,0.1,0.4,0,0.3-0.3c-0.1-0.3,0.6-0.4,1-0.3c0.4,0.1,0.7,0,0.9-0.1h1l0.4-0.3
		c0.1-0.1,0.4,0.1,0.4-0.1h0.9c0.1-0.1,0.1-0.3,0.1-0.3h0.7c0.1-0.3,0.6,0,0.6-0.3h2.3c0.3-0.1,0-0.3,0.3-0.4c0.3-0.1,0,0,0,0.1h1.2
		v-0.3c0.3-0.4,0.9-0.1,1.3-0.3s0.7,0.1,0.6-0.4c0.4-0.2,0.9-0.3,1.3-0.3H63c0.3,0,0.1-0.3,0.3-0.4c0.1-0.1,0.4-0.3,0.7-0.3
		c0.3,0,0.6-0.1,0.7-0.3c0.1-0.1,0.4-0.1,0.4-0.3h0.6c0,0.3-0.6,0.4-0.6,0.7s-0.1,0.4-0.4,0.4h-0.6v0.6h0.1c0,0.2-0.1,0.3-0.3,0.4
		c-0.1,0.4-0.3,0.9-0.4,1.3c-0.6,0,0.1,0.7-0.4,0.7s-0.9,1.2-1.2,2c-0.4,0.6-0.8,1.3-1,2c-0.3,0.2-0.5,0.5-0.4,0.9
		c-0.4,0.3-0.3,1-0.7,1.3c-0.4,0.3-0.3,0.4-0.1,0.7c-0.6,0.8-1,1.7-1.5,2.6c0,0.3-0.3,0.6-0.3,0.9s0,0.6-0.4,0.6
		c-0.4,0,0,0.7-0.3,0.9c-0.3,0.1-0.6,0.9-0.4,1.3l-0.6,1.3c0.1,0.1,0.1,0.2,0,0.3c0.3,0.4-0.1,0.6-0.1,1s-0.3,0.6-0.3,1.2
		c0,0.6,0,0.4,0.1,0.4s0,0.7,0,1.2c0,0.4-0.3,0.6-0.6,0.6c-0.3,0-0.6,0.3-0.1,0.9h0.3c0.1,0.4-0.3,0-0.4,0.1c0.1,0.6,0.1,1.2,0,1.8
		l-0.4,0.9c0,0.4-0.1,1.2-0.3,1.8c-0.1,0.8-0.1,1.7,0,2.5c0.1,1,0.3,2.1,0.6,3.1c0.5,1.6,1.3,3,2.3,4.2c0.2,0.5,0.6,0.9,1,1.2
		c0.2,0.3,0.4,0.6,0.7,0.7c0.1,0.3,0.7,0.1,0.7,0.4c0,0.3,0.4,0.7,1.3,0.4c0.9-0.3,0,0.6,0.4,0.6c0.4,0,0.3,0.4,0.6,0.1l0.9,0.4
		l1.2,0.4c2.4,0.5,4.9,0.8,7.3,0.9c4-0.6,8-1.5,11.9-2.9C81.6,91.8,79.9,91.9,78.3,91.6z"/>
	<path class="st0" d="M92.8,8.7l-4.5-2.2c-1.5,0-3.1,0.3-4.2-0.6c-1.2-0.9-4.8,1.3-7.6,1.3c-1.4,0.4-2.7,1.1-3.8,2
		c-0.9,1.6,1.2,2.2,1.6,3.4s3.5,1.8,4,3.8l0,0c0,0.6,0.7,4,6.4,6.1l0,0l0.6,0.3c1.8,0.9,3.7,1.4,5.7,1.6c2.2-0.3,3.4-1.6,5.1-3.1
		s4-1.9,4-4.2s-1.9-3.7-2.8-5.6C96.3,9.8,94.3,9.3,92.8,8.7z"/>
	<path class="st0" d="M2.3,24.3l-2.3-1c1.1-1.7,2-3.4,2.8-5.3l0,0c0.6-1.6,1-3.3,1.2-5l2.5,0.4c-0.3,1.8-0.8,3.5-1.3,5.3v16.4H2.8
		V23.7L2.3,24.3z M9.5,17.7H6.6v-2.5h2.9V13H12v2.2h4.7v-2.3h2.5v2.3h3.4v2.5h-3.2v2.6h3.8v2.5H6v-2.3h3.5v-2.6V17.7z M9.5,35.2H7
		V24.8c-0.1-0.4,0.2-0.8,0.5-0.9c0.1,0,0.2,0,0.3,0h13.2c0.4-0.1,0.8,0.2,0.9,0.5c0,0.1,0,0.2,0,0.3v10.4h-2.5v-1.2h-10
		C9.5,34.1,9.5,35.2,9.5,35.2z M19.5,27.6v-0.7c0-0.3-0.1-0.3-0.3-0.3H10c-0.3,0-0.4,0.1-0.3,0.4v0.9L19.5,27.6z M9.5,30.1v1.3h10
		v-1.3H9.5z M16.7,20.3v-2.5h-4.5v2.6L16.7,20.3z"/>
	<path class="st0" d="M36.3,14.2v7.8c0,0.4-0.3,0.7-0.7,0.7h-6.7v12.6h-2.5V14.2c-0.1-0.3,0.1-0.6,0.4-0.7c0.1,0,0.2,0,0.3,0h8.6
		C36.2,13.4,36.3,13.7,36.3,14.2z M33.8,16.8v-0.6c0-0.4-0.1-0.6-0.6-0.6h-3.8c-0.4,0-0.6,0.2-0.6,0.6v0.4L33.8,16.8z M28.8,19.1
		v1.2h4.4c0.3,0,0.6-0.2,0.6-0.6c0-0.1,0-0.1,0-0.2V19L28.8,19.1z M42.3,32H31.6c-0.3,0-0.3-0.1-0.3-0.3v-7.2c0-0.3,0.1-0.3,0.3-0.3
		h10.7c0.3,0,0.4,0.1,0.4,0.3v7c0.1,0.1,0.1,0.3,0,0.4C42.6,32.1,42.4,32.1,42.3,32z M33.8,26.8h-0.1v2.6h6.6v-2.6H33.8z M38.4,22.5
		c-0.4,0-0.7-0.3-0.7-0.7c0-0.1,0-0.1,0-0.2v-7.5c0-0.4,0.3-0.7,0.7-0.7h8.3c0.4-0.1,0.8,0.2,0.9,0.6c0,0.1,0,0.1,0,0.2V33
		c0,0.5-0.2,1-0.4,1.5c-0.3,0.4-0.7,0.8-1.2,1c-1.5,0.5-3.2,0.5-4.7,0v-2.8c0.9,0.4,1.9,0.5,2.9,0.4l0.4-0.4
		c0.1-0.2,0.2-0.5,0.1-0.7v-9.5H38.4z M44.9,16.8v-0.4c0.1-0.3-0.1-0.6-0.4-0.7c-0.1,0-0.2,0-0.3,0h-3.5c-0.4,0-0.6,0.2-0.6,0.6v0.4
		L44.9,16.8z M40.1,19.1v0.4c0,0.5,0.2,0.7,0.7,0.7h4.2v-1L40.1,19.1z"/>
	<path class="st0" d="M57.1,19.1l2.3,0.3c-0.4,4-0.8,7.6-1.3,10.7l1.2-0.4l1,2.2c-3.1,1.3-6.3,2.1-9.5,2.6L50.2,32l5.3-1
		C56.3,27.1,56.9,23.1,57.1,19.1z M54.2,12.8h2.5v2.6h3.7V18h-9.7v-2.5h3.7v-2.6L54.2,12.8z M53.4,19.6c0.5,3.6,0.8,7.2,0.9,10.8H52
		c0-3.6-0.3-7.2-0.9-10.7L53.4,19.6z M63,35.1h-2.5V21.9c-0.1-0.4,0.2-0.8,0.5-0.9c0.1,0,0.2,0,0.3,0h2.9v-8.2h2.5v2h6.1v2.5h-6.1
		V21h4.8c0.4-0.1,0.8,0.2,0.9,0.5c0,0.1,0,0.2,0,0.3v13.2H70v-1.2h-7V35.1z M70,31.3V24c0-0.3-0.1-0.3-0.3-0.3h-6.3
		c-0.3,0-0.4,0.1-0.3,0.4v7.3L70,31.3z"/>
</g>
</svg>
