<?xml version="1.0" encoding="utf-8"?>
<!-- Generator: Adobe Illustrator 16.0.0, SVG Export Plug-In . SVG Version: 6.00 Build 0)  -->
<!DOCTYPE svg PUBLIC "-//W3C//DTD SVG 1.1//EN" "http://www.w3.org/Graphics/SVG/1.1/DTD/svg11.dtd">
<svg version="1.1" id="圖層_1" xmlns="http://www.w3.org/2000/svg" xmlns:xlink="http://www.w3.org/1999/xlink" x="0px" y="0px"
	 width="100px" height="100px" viewBox="0 0 100 100" enable-background="new 0 0 100 100" xml:space="preserve">
<path fill="#040000" d="M100,50.962c0-4.707-3.076-8.691-7.328-10.063C89.203,24.98,76.955,12.303,61.268,8.229
	C60.199,3.521,55.994,0,50.961,0c-4.934,0-9.064,3.381-10.234,7.949c-16.176,3.71-28.916,16.508-32.542,32.718
	C3.498,41.751,0,45.944,0,50.962c0,5.174,3.715,9.471,8.62,10.389c4.139,15.379,16.562,27.389,32.169,30.944
	C42.042,96.74,46.116,100,50.961,100c4.943,0,9.084-3.397,10.243-7.981c15.118-3.9,27.057-15.788,31.038-30.873
	C96.714,59.912,100,55.825,100,50.962z M60.203,84.287c-1.807-3.244-5.266-5.441-9.242-5.441c-4.08,0-7.612,2.314-9.377,5.696
	c-12.212-3.131-21.9-12.569-25.361-24.646c2.96-1.876,4.931-5.171,4.931-8.934c0-3.92-2.138-7.334-5.307-9.161
	c3.083-12.807,13.091-22.912,25.84-26.139c1.798,3.273,5.275,5.492,9.274,5.492c3.893,0,7.285-2.109,9.122-5.242
	c12.168,3.451,21.672,13.212,24.778,25.518c-3.555,1.704-6.016,5.327-6.016,9.532c0,4.053,2.282,7.57,5.629,9.345
	C81.01,71.865,71.816,80.949,60.203,84.287z"/>
</svg>
