<?xml version="1.0" encoding="utf-8"?>
<!-- Generator: Adobe Illustrator 24.0.1, SVG Export Plug-In . SVG Version: 6.00 Build 0)  -->
<svg version="1.1" id="圖層_1" xmlns="http://www.w3.org/2000/svg" xmlns:xlink="http://www.w3.org/1999/xlink" x="0px" y="0px"
	 viewBox="0 0 100 100" style="enable-background:new 0 0 100 100;" xml:space="preserve">
<style type="text/css">
	.st0{fill-rule:evenodd;clip-rule:evenodd;}
</style>
<title>clock</title>
<path class="st0" d="M50,0C22.4,0,0,22.4,0,50s22.4,50,50,50s50-22.4,50-50S77.6,0,50,0 M62.2,42.4c-1,2.6-2,5.3-3.1,7.9
	c-2.2,5.4-4.5,10.9-6.8,16.3c-0.3,0.6-0.5,1.3-0.6,2c-0.2,1.1,0.5,1.9,1.6,1.7c0.9-0.2,1.7-0.6,2.6-1c1.2-0.6,2.4-1.3,3.7-1.9
	c0.5-0.2,1-0.3,1.6-0.4c0.6-0.1,0.9,0.3,0.7,0.9c-0.2,0.7-0.4,1.4-0.7,2c-1.7,3.4-4.1,6.5-6.7,9.3c-1.6,1.7-3.3,3.4-5.5,4.4
	c-2.7,1.3-5.6,1.7-8.6,1c-3.2-0.8-5.3-3.3-5.5-6.7c0-0.3,0-0.6-0.1-1c0.1-2.1,0.6-4.1,1.2-6c1.7-5.7,3.9-11.2,6.3-16.7
	c1-2.4,2-4.8,3.1-7.1c0.1-0.2,0.2-0.5,0.3-0.7c0.3-1,0-1.8-1.1-2.1c-1.2-0.4-2.3-0.3-3.5-0.1c-2.2,0.4-4.2,1.1-6.1,2.1
	c-0.2,0.1-0.5,0.1-0.8,0.2c0.1-0.3,0.1-0.6,0.2-0.8c1-1.7,2.3-3.1,3.6-4.5c2.7-2.7,5.7-5,9.3-6.5c2.8-1.2,5.8-1.6,8.8-1.6
	c1.7,0,3.2,0.6,4.3,1.9c1,1,1.9,2,2.2,3.5C62.9,39.8,62.7,41.2,62.2,42.4 M58.1,30.5c-4.3,0-7.7-3.5-7.7-7.8c0-4.2,3.5-7.7,7.7-7.7
	c4.3,0,7.7,3.5,7.7,7.7C65.9,27,62.4,30.5,58.1,30.5"/>
</svg>
