<?xml version="1.0" encoding="utf-8"?>
<!-- Generator: Adobe Illustrator 21.0.0, SVG Export Plug-In . SVG Version: 6.00 Build 0)  -->
<svg version="1.1" id="圖層_1" xmlns="http://www.w3.org/2000/svg" xmlns:xlink="http://www.w3.org/1999/xlink" x="0px" y="0px"
	 viewBox="0 0 100 100" style="enable-background:new 0 0 100 100;" xml:space="preserve">
<title>traffic-map-icom</title>
<g>
	<path d="M65.8,99.6l-1.5-0.4l0,0c-5.3-1.8-8.8-7-8.5-12.6c0-0.3,0.1-0.6,0.2-0.9c-0.4-0.8,0.6-1.3,0-1.9c0.3-0.4,0.5-0.8,0.6-1.3
		c0-0.2,0.4-0.6,0.4-0.8s0.8-0.8,0.6-1.1s0.4-1.5,0.9-1.7c0.6-0.2,0.4-0.6,0.4-0.8s0.4-0.8,0.6-1.3c0.3-0.2,0.4-0.4,0.4-0.8h0.4
		v-0.4c-0.4,0.2-1.3-0.2-1.1,0.6c0.2,0.8-0.2,0.4-0.4,0.4s-0.8,0.8-0.4,1.5c0.4,0.8,0,0.9-0.6,1.3c-0.2,0.6-0.5,1.1-0.9,1.5
		c0,0.2,0,0.4-0.2,0.4c-0.2,0,0-0.9,0.4-1.1c0.4-0.2,0.8-1.9,1.1-2.8c0.4-0.9,0.4-1.1,0.8-1.5c0.4-0.4,0.6-1.1,0.8-1.7
		s0.6-1.1,0.8-2.1c0.2-0.9,0.4-1.1,0.8-1.3c0.4-0.9,0.9-1.8,1.5-2.6c0.4-0.2,0.2-0.6,0.6-0.9c0.4-0.4,0-0.9,0.6-1.3
		c0.6-0.4,0.6-1.1,1.1-1.3l0,0c0.8-0.8,1.1-1.7,2.3-1.7c1.1,0,0.6-0.2,0.9-0.4c0.4-0.2,0.4-0.2,0.2-0.4c-0.2-0.2,0.9-0.8,1.1-1.5
		c0.2-0.8,0.4-0.9,0.9-1.3c0.6-0.4,0.4-0.6,0.2-0.9C70.3,58,70.1,59,70,59.1s-0.8,0.4-0.8,0.8s0,0.6-0.4,0.6s-0.6,0.6-0.4,0.9h-0.6
		c-0.4-0.4,0.2-0.9,0.2-1.5c0-0.6,0.6-0.4,0.4-0.8c-0.2-0.4-0.4,0.4-0.6,0.6h-0.4c0-0.4,0-0.8,0.6-0.9c0.6-0.2,0.6-0.6,0.4-0.9
		c-0.2-0.4,0.4-0.8,0.9-0.8s0-0.2-0.2-0.4h0.2v-1.9c0.4-0.4,0.8-0.7,1.3-0.9c-0.2-0.2,0.2-0.6,0.2-0.6s0.9-0.8,0.9-1.3
		c0-0.6,0.8-0.4,0.9-0.6s0.4-0.6,0.8-0.9c0-0.1,0-0.3,0-0.4c0.6-0.2,0.8-0.9,1.1-1.3c0.4-0.4,0.6-0.4,0.2-0.8H75
		c-0.2-0.2,0.2-0.2,0.4-0.4c0.2-0.2,1.3-0.9,1.1-1.9c-0.2-0.9-0.4,0.4-0.6,0l0.4-0.9l0,0v0.4h0.4l0.8-0.6c0-0.2,0-0.2-0.2-0.4h0.2
		c0.6,0.2,0.4-0.4,0.9-0.4v-0.8l0.8-0.4c0-0.4,0.4-0.4,0.4-0.8c0.5-0.5,0.8-1.2,0.9-1.9c0.4-0.2,0.2-0.8,0.6-0.9
		c0.4-0.2,0.4-0.2,0.2-0.6l0.4-0.4c0-0.4,0.2-0.6,0.2-0.8l0.6-0.6c0-0.4,0.4-0.8,0.6-1.1l1.1-2.1c0.6-0.4,0.4-0.9,0.4-1.5
		c-0.2-0.7-0.3-1.5-0.2-2.3c0-1.9-3.4-1.1-4.3-0.9h-0.2c-0.2,0.6-0.9,0.2-1.1,0.6h-0.8c-0.2,0.4-0.8,0.2-1.1,0.4H76L75,30.3
		c-0.2,0.4-0.8,0-0.6,0.6h-0.8c-0.2,0.4-0.6,0.4-0.9,0.4s-0.4,0.4-0.8,0.4s-0.4,0-0.6,0.2C71.3,32,70.5,32,70,32h-0.2
		c-0.4-0.2-0.4,0.2-0.6,0.4l-1.9,1.7l-0.8,0.4h-1.1c-0.2,0.2-0.6,0-0.8,0h-0.2c-0.6,0.4-1.1,0-1.7,0.4c-0.6,0.4-0.9-0.2-1.1,0.4
		h-0.6c-0.2,0-0.2,0.2-0.2,0.4L59.2,36c-0.2,0.4-0.6,0-0.8,0.4h-1.3c-0.6-0.2-0.6,0.4-0.9,0.4l0,0c-0.4,0-0.8,0.2-1.1,0.6h-0.6
		c-0.8-0.2-0.9,0.6-1.9,0.6c-0.9,0-0.9,0.2-0.9,0.6c0,0.4-0.9,0.2-1.5,0.4c-0.6,0.2-0.8,0.4-1.3,0.4h-0.9c-0.4,0.4-1.1,0.2-1.5,0.8
		c-0.4,0.6-0.6,0-0.6,0.2s-0.6,0.2-0.8,0.4c-0.2,0.2-1.1,0.2-1.7,0.6c-0.6,0.4-0.4,0.4-0.8,0.2s-0.4,0.2-0.4,0.4h-0.9
		c-0.4,0.2-0.9,0-1.3,0.2s-0.6,0.4-0.6,0.8h-1.1c-0.4-0.2-0.6,0.2-0.8,0.4l0,0c0,0,0,0.4-0.2,0c-0.4,0-0.8,0.2-0.9,0.6
		c-0.2,0-0.6-0.4-0.8,0c-0.2,0.4-0.6,0.2-0.8,0.4c0.1,0.1,0.1,0.2,0.1,0.3c-0.1,0.1-0.2,0.1-0.3,0.1c-0.4-0.2-0.8,0.2-1.1,0.2h-0.9
		v0.4c-0.4,0.2-0.2,0.6-0.6,0.4S31.9,45,31.5,45c-0.4,0-0.9,0-1.3,0.4c-0.4,0.4-0.6,0.2-0.8,0.4C29.3,46,28.3,46,28,46.5
		c-0.4,0.6-0.9,0.4-1.5,0.4s-0.8-0.2-0.9,0.4c-0.2,0.6-0.9,0.4-1.5,0.4s-0.8,0.2-0.9,0.6h-0.9l-1.5,0.6c-0.6,0-0.6,0.6-1.1,0.4
		l-1.1,0.6c0.2,0.4-0.4,0.2-0.6,0.2s-0.6,0.2-0.4,0.4l-1.3,0.4c-0.2,0.4-0.6,0.2-0.6,0.4c0,0.2-0.6,0-0.6,0.2c0,0.2-0.6,0.2-0.9,0.2
		s-0.9,0.4-1.5,0.8h-0.9c-0.2,0.4-0.8,0.4-1.1,0.4l-0.9,0.4v0.4h2.1v-0.2h0.6c0.4,0.4,0.9-0.4,1.5-0.2h-0.4
		c-0.2,0.4,0.2,0.4,0.2,0.6h0.2v0.2l2.3-0.4c0.4,0.4,0.9,0,1.3,0.2h0.9c0.2,0.2,0.4,0.2,0.4,0.4h-0.2v0.4c0.2,0,0.6,0,0.6-0.2h0.6
		v-0.4h-0.2c0.2,0,0.4,0,0.2-0.2l0,0c0.4,0,0.8,0.2,0.6,0.6l0,0c0.4,0,0.8-0.2,0.9,0.2h1.1v-0.4h1.7c-0.2-0.4,0.8-0.4,0.6-0.8h0.9
		c0.2-0.4,0.8,0.2,0.9-0.4H27c0.2,0,0.8,0,0.6-0.4h0.6c-0.2-0.4,0.4,0,0.6-0.2l0,0c0.4,0.2,0.2-0.2,0.4-0.4c0.2-0.2,0.6,0.4,0.8,0.4
		s0,0.2,0,0.2s-0.4,0.4-0.6,0.6h-0.4c-0.2-0.2-0.2,0.2-0.4,0.2s-1.3,0.8-2.3,0.6c-0.9-0.2-0.2,0.4-0.2,0.6c0,0.2-0.4-0.2-0.4,0.2
		h-0.4c0,0.4-0.4,0.6-0.2,0.9h0.2c0.2-0.2,0.6-0.2,0.6-0.4s0-0.2,0.2-0.2s0.8-0.4,1.1-0.6c0.4-0.2,0.6,0,0.8,0.4h-0.4v0.6
		c0.4-0.2,0.4,0.2,0.8,0.2c0.4,0,0.8,0.2,1.1,0h1.3c0.4,0,0.6-0.4,1.1-0.2c0.6,0.2,0.4,0,0.4-0.4s0.8-0.6,1.1-0.4s0.8,0,0.9-0.2h1.1
		l0.4-0.4c0.2-0.2,0.4,0.2,0.6-0.2h0.9v-0.4h0.8c0-0.4,0.6,0,0.6-0.4h2.8c0.2-0.2,0-0.4,0.4-0.6c0.4-0.2,0,0,0,0.2h1.3v-0.4
		c0.4-0.4,1.1-0.2,1.5-0.4c0.4-0.2,0.8,0,0.6-0.4c0.5-0.3,1-0.4,1.5-0.4H47c0.4,0,0.2-0.4,0.4-0.4s0.4-0.4,0.9-0.2h0.9
		c0.2-0.2,0.4-0.2,0.6-0.4h0.6c0,0.4-0.8,0.4-0.8,0.8s-0.2,0.6-0.4,0.4h-0.8v0.6h0.2c0,0.2-0.2,0.4-0.4,0.6c-0.2,0.5-0.3,1-0.6,1.5
		c-0.8,0,0.2,0.9-0.6,0.9c-0.8,0-0.9,1.3-1.3,2.3c-0.5,0.8-0.8,1.6-1.1,2.4c-0.4,0.2-0.6,0.5-0.6,0.9c-0.6,0.4-0.4,1.1-0.9,1.5
		s-0.4,0.6-0.2,0.8c-0.6,1-1.2,2-1.7,3c0,0.4-0.4,0.6-0.4,0.9s0,0.6-0.4,0.8s0,0.9-0.4,1.1c-0.4,0.2-0.6,0.9-0.6,1.5l-0.6,1.5
		c0.1,0.1,0.1,0.3,0,0.4c0.4,0.6-0.2,0.8-0.2,1.1s-0.4,0.8-0.4,1.3c0,0.6,0,0.4,0.2,0.6s0,0.8,0,1.3s-0.2,0.6-0.8,0.8
		c-0.6,0.2-0.8,0.4-0.2,0.9h0.4c0.2,0.4-0.2,0-0.6,0.2c0.1,0.6,0.1,1.3,0,1.9L37,81c0,0.6-0.2,1.3-0.2,2.1c-0.1,0.9-0.1,1.9,0,2.8
		c0.1,1.2,0.4,2.4,0.8,3.6c0.5,1.8,1.4,3.5,2.6,4.9c0.3,0.5,0.7,1,1.1,1.3c0.2,0.3,0.6,0.6,0.9,0.8c0.2,0.4,0.9,0.2,0.8,0.6
		s0.4,0.9,1.5,0.4s0,0.6,0.4,0.8c0.4,0.2,0.4,0.6,0.8,0.2l1.1,0.4l1.3,0.4c2.8,0.6,5.6,0.9,8.5,0.9c4.9-0.7,9.7-1.9,14.3-3.6
		C69.5,97.9,67.8,99,65.8,99.6z"/>
	<path d="M82.6,3.4l-5.3-2.6c-1.7,0-3.6,0.4-4.9-0.6c-1.3-0.9-5.5,1.7-8.8,1.7c-1.6,0.5-3.2,1.2-4.5,2.3c-0.9,1.9,1.3,2.6,1.9,4
		c0.6,1.3,4.1,2.1,4.5,4.3l0,0c0,0.8,0.8,4.7,7.5,7.2h0.8c2,1,4.2,1.6,6.4,1.9c2.6-0.4,4-1.9,5.8-3.6c1.9-1.7,4.5-2.3,4.5-4.9
		s-2.3-4.3-3.2-6.6C86.3,4.2,84.3,4.2,82.6,3.4z"/>
</g>
</svg>
