<svg xmlns="http://www.w3.org/2000/svg" viewBox="0 0 100 100">
  <defs>
    <style>
      .cls-1{fill:#fff}
    </style>
  </defs>
  <g id="註解">
    <g id="_群組_" data-name="&lt;群組&gt;">
      <path id="_複合路徑_" data-name="&lt;複合路徑&gt;" class="cls-1" d="M64.16 16.5H35.84A19.34 19.34 0 0 0 16.5 35.84v28.32A19.34 19.34 0 0 0 35.84 83.5h28.32A19.34 19.34 0 0 0 83.5 64.16V35.84A19.34 19.34 0 0 0 64.16 16.5zm13.17 48.16A12.84 12.84 0 0 1 64.49 77.5h-29a12.84 12.84 0 0 1-12.82-12.84v-29a12.84 12.84 0 0 1 12.84-12.82h29a12.84 12.84 0 0 1 12.82 12.83z"/>
      <path id="_複合路徑_2" data-name="&lt;複合路徑&gt;" class="cls-1" d="M50 32.78a17.38 17.38 0 1 0 17.38 17.39A17.38 17.38 0 0 0 50 32.78zm0 28.65a11.27 11.27 0 1 1 11.27-11.26A11.27 11.27 0 0 1 50 61.44z"/>
      <circle id="_路徑_" data-name="&lt;路徑&gt;" class="cls-1" cx="67.96" cy="32.12" r="4.05"/>
    </g>
  </g>
</svg>
