<svg xmlns="http://www.w3.org/2000/svg" viewBox="0 0 100 100"><title>fast-06</title><g id="註解"><path d="M31.31,19.88c-8.13,0-14.75,7.36-14.75,16.4,0,7.7,4.8,14.16,11.25,15.91V76.63a3.5,3.5,0,0,0,7,0V52.18C41.26,50.43,46.06,44,46.06,36.27,46.06,27.23,39.45,19.88,31.31,19.88Zm0,25.79c-4.27,0-7.75-4.21-7.75-9.4s3.48-9.4,7.75-9.4,7.75,4.21,7.75,9.4S35.59,45.67,31.31,45.67Z"/><path d="M79.93,22.53a3.5,3.5,0,0,0-3.5,3.5V40c0,.21-.48.68-1.27.68H70.68V25.4a3.5,3.5,0,1,0-7,0V40.68H59.19c-.79,0-1.27-.47-1.27-.68V26a3.5,3.5,0,0,0-7,0V40c0,4.23,3.71,7.68,8.27,7.68h4.49V76.63a3.5,3.5,0,0,0,7,0V47.68h4.49c4.56,0,8.27-3.44,8.27-7.68V26A3.5,3.5,0,0,0,79.93,22.53Z"/></g></svg>