<?xml version="1.0" encoding="utf-8"?>
<!-- Generator: Adobe Illustrator 21.0.0, SVG Export Plug-In . SVG Version: 6.00 Build 0)  -->
<svg version="1.1" id="圖層_1" xmlns="http://www.w3.org/2000/svg" xmlns:xlink="http://www.w3.org/1999/xlink" x="0px" y="0px"
	 viewBox="0 0 100 100" style="enable-background:new 0 0 100 100;" xml:space="preserve">
<style type="text/css">
	.st0{fill:#C8C8C8;}
</style>
<g>
	<g>
		<g>
			<path class="st0" d="M100,42.9c0-22.4-22.4-40.6-50-40.6C22.4,2.4,0,20.6,0,42.9C0,63,17.8,79.8,41.8,83c1.6,0.4,3.8,1.1,4.4,2.5
				c0.5,1.3,0.3,3.2,0.2,4.5c0,0-0.6,3.5-0.7,4.3c-0.2,1.3-1,4.9,4.3,2.7c5.3-2.2,28.8-17,39.3-29h0C96.5,60,100,51.9,100,42.9z
				 M30.4,56.2h-9.9c-1.4,0-2.6-1.2-2.6-2.6V33.8c0-1.4,1.2-2.6,2.6-2.6c1.4,0,2.6,1.2,2.6,2.6V51h7.3c1.4,0,2.6,1.2,2.6,2.6
				C33,55.1,31.9,56.2,30.4,56.2z M40.7,53.6c0,1.4-1.2,2.6-2.6,2.6c-1.4,0-2.6-1.2-2.6-2.6V33.8c0-1.4,1.2-2.6,2.6-2.6
				c1.4,0,2.6,1.2,2.6,2.6V53.6z M64.6,53.6c0,1.1-0.7,2.1-1.8,2.5c-0.3,0.1-0.6,0.1-0.8,0.1c-0.8,0-1.6-0.4-2.1-1L49.7,41.3v12.3
				c0,1.4-1.2,2.6-2.6,2.6c-1.4,0-2.6-1.2-2.6-2.6V33.8c0-1.1,0.7-2.1,1.8-2.5c0.3-0.1,0.6-0.1,0.8-0.1c0.8,0,1.6,0.4,2.1,1L59.4,46
				V33.8c0-1.4,1.2-2.6,2.6-2.6c1.4,0,2.6,1.2,2.6,2.6V53.6z M80.7,41.1c1.4,0,2.6,1.2,2.6,2.6c0,1.4-1.2,2.6-2.6,2.6h-7.3V51h7.3
				c1.4,0,2.6,1.2,2.6,2.6c0,1.4-1.2,2.6-2.6,2.6h-9.9c-1.4,0-2.6-1.2-2.6-2.6v-9.9c0,0,0,0,0,0v-9.9c0-1.4,1.2-2.6,2.6-2.6h9.9
				c1.4,0,2.6,1.2,2.6,2.6c0,1.4-1.2,2.6-2.6,2.6h-7.3v4.7H80.7z"/>
		</g>
	</g>
</g>
</svg>
