<?xml version="1.0" encoding="utf-8"?>
<!-- Generator: Adobe Illustrator 24.0.1, SVG Export Plug-In . SVG Version: 6.00 Build 0)  -->
<svg version="1.1" id="圖層_1" xmlns="http://www.w3.org/2000/svg" xmlns:xlink="http://www.w3.org/1999/xlink" x="0px" y="0px"
	 viewBox="0 0 100 100" style="enable-background:new 0 0 100 100;" xml:space="preserve">
<title>clock</title>
<g>
	<path d="M95.1,61.1L82.2,48.4c-3.5-3.5-7.6-5.1-12.6-5.1S60.4,45,57,48.7l-5.4-5.4c3.6-3.6,5.4-7.9,5.4-12.9
		c0-4.8-1.7-8.9-5.1-12.4L39.3,5.1c-3.5-3.6-7.6-5.1-12.6-5.1s-8.9,1.7-12.4,5.1l-8.9,8.8c-3.6,3.5-5.3,7.6-5.3,12.6
		S1.7,35.5,5.2,39l12.7,12.7c3.5,3.5,7.6,5.1,12.6,5.1s9.2-1.8,12.7-5.4l5.4,5.4c-3.6,3.6-5.4,7.9-5.4,12.9c0,4.8,1.7,8.9,5.1,12.4
		l12.6,12.7c3.5,3.6,7.6,5.1,12.6,5.1c4.8,0,8.9-1.7,12.4-5.1l8.9-8.8c3.6-3.5,5.1-7.6,5.1-12.4C100.1,68.8,98.4,64.7,95.1,61.1z
		 M43.2,35c-0.2-0.2-0.6-0.6-1.2-1.2s-1.2-1.2-1.2-1.2s-0.6-0.6-1.2-0.9c-0.6-0.5-1.1-0.6-1.5-0.9c-0.6-0.2-1.2-0.2-1.7-0.2
		c-1.5,0-3,0.6-4.1,1.7c-1.2,1.2-1.7,2.6-1.7,4.1c0,0.6,0.2,1.2,0.2,1.7c0.2,0.6,0.5,1.1,0.9,1.5c0.5,0.6,0.8,0.9,0.9,1.2
		c0.2,0.2,0.8,0.8,1.2,1.2c0.8,0.6,1.1,1.1,1.2,1.2c-1.2,1.2-2.7,1.8-4.4,1.8c-1.7,0-3.2-0.6-4.1-1.7L13.8,30.5
		c-1.2-1.2-1.7-2.6-1.7-4.1s0.6-3,1.7-4.1l8.9-8.8c1.2-1.2,2.6-1.7,4.1-1.7s3,0.6,4.1,1.7l12.6,12.7c1.2,1.2,1.7,2.6,1.7,4.1
		C45.3,32.2,44.6,33.7,43.2,35z M86.6,77.7l-8.9,8.8c-1.2,1.2-2.6,1.5-4.1,1.5c-1.7,0-3.2-0.6-4.1-1.7L57,73.8
		c-1.2-1.2-1.7-2.6-1.7-4.1c0-1.5,0.8-3.2,2-4.5c0.2,0.2,0.6,0.6,1.2,1.2c0.6,0.8,1.2,1.2,1.2,1.2c0.2,0.2,0.6,0.6,1.2,0.9
		c0.6,0.5,1.2,0.8,1.5,0.9c0.6,0.2,1.2,0.2,1.7,0.2c1.5,0,3-0.6,4.1-1.7c1.2-1.2,1.7-2.6,1.7-4.1c0-0.6-0.2-1.2-0.2-1.7
		c-0.2-0.6-0.5-1.1-0.9-1.5c-0.5-0.6-0.8-0.9-0.9-1.2c-0.2-0.2-0.8-0.8-1.2-1.2c-0.8-0.6-1.1-1.1-1.2-1.2c1.2-1.2,2.7-2,4.4-2
		c1.5,0,3,0.6,4.1,1.7l12.7,12.7c1.2,1.2,1.7,2.6,1.7,4.1C88.4,75.1,87.8,76.7,86.6,77.7z"/>
</g>
</svg>
