<?xml version="1.0" encoding="utf-8"?>
<!-- Generator: Adobe Illustrator 24.0.1, SVG Export Plug-In . SVG Version: 6.00 Build 0)  -->
<svg version="1.1" id="圖層_1" xmlns="http://www.w3.org/2000/svg" xmlns:xlink="http://www.w3.org/1999/xlink" x="0px" y="0px"
	 viewBox="0 0 100 100" style="enable-background:new 0 0 100 100;" xml:space="preserve">
<title>link-out</title>
<g id="註解">
	<path d="M93.3,60.9c-3.7,0-6.7,3-6.7,6.7v18.8h-73v-73h18.8c3.7,0,6.7-3,6.7-6.7S36,0,32.3,0H6.7C3,0,0,3,0,6.8v86.5
		C0,97,3,100,6.7,100h86.5c3.7,0,6.7-3,6.7-6.7V67.7C100,64,97,60.9,93.3,60.9z"/>
	<path d="M99.9,5.4c0-0.2-0.1-0.4-0.2-0.6c-0.1-0.2-0.1-0.5-0.2-0.7c-0.1-0.2-0.2-0.4-0.3-0.7C99,3.4,99,3.2,98.9,3
		c-0.5-0.7-1.1-1.4-1.9-1.9C96.8,1,96.6,1,96.5,0.9c-0.4-0.3-0.9-0.5-1.3-0.6c-0.2,0-0.4-0.1-0.6-0.2C94.1,0,93.7,0,93.3,0h-31
		c-3.7,0-6.7,3-6.7,6.7s3,6.7,6.7,6.7H77L37.5,53c-2.6,2.6-2.6,6.9,0,9.5c2.6,2.6,6.9,2.6,9.5,0L86.5,23v16.1c0,3.7,3,6.7,6.7,6.7
		c3.7,0,6.7-3,6.7-6.7V6.8C100,6.3,99.9,5.9,99.9,5.4z"/>
</g>
</svg>
