<svg xmlns="http://www.w3.org/2000/svg" viewBox="0 0 100 100"><title>list</title><g id="註解"><path d="M43.23,47.92h-17a4,4,0,0,1-4-4v-17a4,4,0,0,1,4-4h17a4,4,0,0,1,4,4v17A4,4,0,0,1,43.23,47.92Zm-13-8h9v-9h-9Z"/><path d="M73.77,32.56h-17a4,4,0,0,1,0-8h17a4,4,0,0,1,0,8Z"/><path d="M73.77,46.31h-17a4,4,0,0,1,0-8h17a4,4,0,0,1,0,8Z"/><path d="M43.23,77.08h-17a4,4,0,0,1-4-4v-17a4,4,0,0,1,4-4h17a4,4,0,0,1,4,4v17A4,4,0,0,1,43.23,77.08Zm-13-8h9v-9h-9Z"/><path d="M73.77,61.72h-17a4,4,0,0,1,0-8h17a4,4,0,0,1,0,8Z"/><path d="M73.77,75.47h-17a4,4,0,1,1,0-8h17a4,4,0,0,1,0,8Z"/></g></svg>