<svg xmlns="http://www.w3.org/2000/svg" viewBox="0 0 100 100"><title>livecam</title><g id="註解"><path d="M88.11,32.94a8.37,8.37,0,0,0-8.45,0l-3.26,1.89V33.42A10.92,10.92,0,0,0,65.48,22.51H18.58A10.92,10.92,0,0,0,7.67,33.42V66.58A10.92,10.92,0,0,0,18.58,77.49h46.9A10.92,10.92,0,0,0,76.39,66.58V65.17l3.26,1.89a8.45,8.45,0,0,0,12.68-7.32V40.26A8.37,8.37,0,0,0,88.11,32.94ZM71.32,39.22V66.58a5.84,5.84,0,0,1-5.84,5.84H18.58a5.84,5.84,0,0,1-5.84-5.84V33.42a5.84,5.84,0,0,1,5.84-5.84h46.9a5.84,5.84,0,0,1,5.84,5.84ZM87.26,59.74a3.38,3.38,0,0,1-5.07,2.93l-5.8-3.35V40.68l5.8-3.35a3.38,3.38,0,0,1,5.07,2.93Z"/><polygon points="25.17 41.66 21.44 41.66 21.44 57.9 30.99 57.9 30.99 53.9 25.17 53.9 25.17 41.66"/><rect x="32.84" y="41.65" width="3.74" height="16.25"/><polygon points="44.68 53.35 41.96 41.66 38.06 41.66 42.62 57.9 46.67 57.9 51.15 41.66 47.36 41.66 44.68 53.35"/><polygon points="56.1 51.02 61.9 51.02 61.9 47.7 56.1 47.7 56.1 45.12 62.35 45.12 62.35 41.66 52.36 41.66 52.36 57.9 62.53 57.9 62.53 54.22 56.1 54.22 56.1 51.02"/></g></svg>