<?xml version="1.0" encoding="utf-8"?>
<!-- Generator: Adobe Illustrator 24.0.1, SVG Export Plug-In . SVG Version: 6.00 Build 0)  -->
<svg version="1.1" id="圖層_1" xmlns="http://www.w3.org/2000/svg" xmlns:xlink="http://www.w3.org/1999/xlink" x="0px" y="0px"
	 viewBox="0 0 100 100" style="enable-background:new 0 0 100 100;" xml:space="preserve">
<style type="text/css">
	.st0{fill-rule:evenodd;clip-rule:evenodd;}
</style>
<path class="st0" d="M100,48.3H82c-1.2-16.3-14.1-29.2-30.3-30.4V0h-4.8v17.9c-16.2,1.2-29.1,14.1-30.3,30.4H0v4.8h16.5
	c1.2,16.2,14.1,29.1,30.3,30.3V100h4.8V83.5C67.9,82.3,80.8,69.4,82,53.1h18V48.3z M77.2,48.3h-8.8c-1.1-8.7-7.9-15.6-16.7-16.7
	v-8.9C65.3,24,76,34.7,77.2,48.3z M46.9,22.8v8.9c-8.7,1.1-15.6,7.9-16.7,16.7h-8.8C22.5,34.7,33.3,24,46.9,22.8z M21.3,53.1h8.8
	c1.1,8.7,7.9,15.6,16.7,16.7v8.9C33.3,77.5,22.5,66.7,21.3,53.1z M51.7,78.7v-8.9c8.7-1.1,15.6-7.9,16.7-16.7h8.8
	C76,66.7,65.3,77.5,51.7,78.7z"/>
</svg>
