<?xml version="1.0" encoding="utf-8"?>
<!-- Generator: Adobe Illustrator 24.0.1, SVG Export Plug-In . SVG Version: 6.00 Build 0)  -->
<svg version="1.1" id="圖層_1" xmlns="http://www.w3.org/2000/svg" xmlns:xlink="http://www.w3.org/1999/xlink" x="0px" y="0px"
	 viewBox="0 0 100 100" style="enable-background:new 0 0 100 100;" xml:space="preserve">
<title>fast-03</title>
<g id="註解">
	<path d="M50,0C27.9,0,10,17.9,10,40c0,20.6,31.8,54.2,35.5,58c2.4,2.5,6.5,2.6,9,0.2c0.1-0.1,0.1-0.1,0.2-0.2
		C58.2,94.3,90,60.6,90,40C90,17.9,72.1,0,50,0z M50,84.3C37.9,70.8,22.7,50.4,22.7,40.1C22.7,25,34.9,12.7,50,12.7
		S77.3,25,77.3,40.1C77.3,50.3,62.1,70.8,50,84.3z"/>
	<circle cx="50" cy="38.9" r="9.7"/>
</g>
</svg>
