<?xml version="1.0" encoding="utf-8"?>
<!-- Generator: Adobe Illustrator 24.0.1, SVG Export Plug-In . SVG Version: 6.00 Build 0)  -->
<svg version="1.1" id="圖層_1" xmlns="http://www.w3.org/2000/svg" xmlns:xlink="http://www.w3.org/1999/xlink" x="0px" y="0px"
	 viewBox="0 0 100 100" style="enable-background:new 0 0 100 100;" xml:space="preserve">
<style type="text/css">
	.st0{fill:#231815;}
</style>
<title>magnifier</title>
<g id="註解">
	<path class="st0" d="M98,87.7L82.6,72.3c14.8-20.4,10.2-49-10.3-63.7S23.4-1.6,8.6,18.9s-10.2,49,10.3,63.7
		c16,11.5,37.5,11.5,53.5,0L87.7,98c2.9,2.8,7.5,2.7,10.3-0.3C100.6,94.9,100.6,90.5,98,87.7z M23.6,67.6c-12.2-12.2-12.2-31.9,0-44
		s31.9-12.2,44,0s12.2,31.9,0,44c0,0,0,0,0,0l0,0C55.4,79.8,35.7,79.8,23.6,67.6z"/>
</g>
</svg>
