<svg xmlns="http://www.w3.org/2000/svg" viewBox="0 0 100 100"><defs><style>.cls-1{fill:#6a9c78;}</style></defs><title>map</title><g id="註解"><path class="cls-1" d="M49.42,12.44A16.6,16.6,0,0,0,32.84,29c0,8.52,13.18,22.46,14.68,24a2.64,2.64,0,0,0,3.8,0C52.82,51.47,66,37.53,66,29A16.6,16.6,0,0,0,49.42,12.44Zm0,34.89c-5-5.58-11.31-14-11.31-18.31a11.31,11.31,0,1,1,22.61,0C60.73,33.28,54.41,41.75,49.42,47.32Z"/><circle class="cls-1" cx="49.42" cy="28.52" r="4.01"/><path class="cls-1" d="M85.69,27.3A3,3,0,0,0,82.91,27L71,31.64c-.38,4.92-3.49,10.63-7,15.63v32.9L53,75.9v-16a6.7,6.7,0,0,1-6.06.57V75.9L36,80.15V48.87a57.15,57.15,0,0,1-6.06-10V80.15L19,75.88V34.17l10.72,4.18a20.69,20.69,0,0,1-1.86-7.16L17.09,27A3,3,0,0,0,13,29.78V77.93a3,3,0,0,0,1.91,2.8l16.68,6.5a3,3,0,0,0,1.38.34H33a3,3,0,0,0,1.38-.34L50,81.16l15.67,6.1a3,3,0,0,0,1.31.3h0a3,3,0,0,0,1.31-.3l16.79-6.54A3,3,0,0,0,87,77.93V29.78A3,3,0,0,0,85.69,27.3ZM81,75.88,70,80.16V38.45l11-4.29Z"/></g></svg>