<svg xmlns="http://www.w3.org/2000/svg" viewBox="0 0 100 100"><defs><style>.cls-1{fill:#6a9c78;}</style></defs><title>news</title><g id="註解"><path class="cls-1" d="M80.66,36.33H71.39V22.55a3.5,3.5,0,0,0-3.5-3.5H24.24a8.41,8.41,0,0,0-8.4,8.4V72.55a8.41,8.41,0,0,0,8.4,8.4H74.41a9.76,9.76,0,0,0,9.75-9.75V39.83A3.5,3.5,0,0,0,80.66,36.33Zm-3.5,7V71.2a2.75,2.75,0,0,1-2.75,2.75H74.2a2.72,2.72,0,0,1-1.66-.57,5.24,5.24,0,0,1-1.09-3.11V43.33ZM22.84,72.55V27.45a1.4,1.4,0,0,1,1.4-1.4H64.39V68.93c0,.55,0,1.07.06,1.59v.68a9.71,9.71,0,0,0,.4,2.75H24.24A1.4,1.4,0,0,1,22.84,72.55Z"/><polygon class="cls-1" points="29.05 37.04 31.91 42.7 34.15 42.7 34.15 32.39 31.91 32.39 31.91 38.1 29.03 32.39 26.82 32.39 26.82 42.7 29.05 42.7 29.05 37.04"/><polygon class="cls-1" points="42.17 40.37 38.08 40.37 38.08 38.34 41.77 38.34 41.77 36.23 38.08 36.23 38.08 34.59 42.06 34.59 42.06 32.39 35.71 32.39 35.71 42.7 42.17 42.7 42.17 40.37"/><polygon class="cls-1" points="46.68 42.7 48.02 36.21 49.36 42.7 51.69 42.7 53.37 32.39 51.14 32.39 50.33 38.16 49.14 32.39 46.9 32.39 45.72 38.16 44.91 32.39 42.66 32.39 44.36 42.7 46.68 42.7"/><path class="cls-1" d="M59.4,36.68a8.22,8.22,0,0,0-2.22-.91,1.67,1.67,0,0,1-.79-.38.65.65,0,0,1-.17-.44.83.83,0,0,1,.21-.57.79.79,0,0,1,.62-.24,1,1,0,0,1,.79.32,1.85,1.85,0,0,1,.37,1l2.23-.18A3.57,3.57,0,0,0,59.52,33a3.12,3.12,0,0,0-2.24-.73,3.72,3.72,0,0,0-1.88.4,2.55,2.55,0,0,0-1,1.11,3.4,3.4,0,0,0-.34,1.5,3,3,0,0,0,.67,2,4.61,4.61,0,0,0,2.22,1.25,2.63,2.63,0,0,1,1.21.6,1.09,1.09,0,0,1,.26.72,1.11,1.11,0,0,1-.27.74,1,1,0,0,1-.78.32,1.15,1.15,0,0,1-1-.63A2.86,2.86,0,0,1,56,39.1l-2.25.19a4.72,4.72,0,0,0,.85,2.57,3.17,3.17,0,0,0,2.71,1,3.57,3.57,0,0,0,1.84-.43,2.9,2.9,0,0,0,1.14-1.27,4.12,4.12,0,0,0,.41-1.83,3.69,3.69,0,0,0-.31-1.53A2.73,2.73,0,0,0,59.4,36.68Z"/><path class="cls-1" d="M56.94,50.23H29.15a3.5,3.5,0,0,0,0,7H56.94a3.5,3.5,0,0,0,0-7Z"/><path class="cls-1" d="M56.94,62.26H29.15a3.5,3.5,0,0,0,0,7H56.94a3.5,3.5,0,1,0,0-7Z"/></g></svg>