<?xml version="1.0" encoding="utf-8"?>
<!-- Generator: Adobe Illustrator 21.0.0, SVG Export Plug-In . SVG Version: 6.00 Build 0)  -->
<svg version="1.1" id="圖層_1" xmlns="http://www.w3.org/2000/svg" xmlns:xlink="http://www.w3.org/1999/xlink" x="0px" y="0px"
	 viewBox="0 0 100 100" style="enable-background:new 0 0 100 100;" xml:space="preserve">
<style type="text/css">
	.st0{fill:#E5AA17;}
</style>
<path class="st0" d="M50,0C22.4,0,0,22.4,0,50c0,27.6,22.4,50,50,50c27.6,0,50-22.4,50-50C100,22.4,77.6,0,50,0z M47,73.6
	c0,1.1-0.9,2-2,2H32.9c-1.1,0-2-0.9-2-2V26.4c0-1.1,0.9-2,2-2H45c1.1,0,2,0.9,2,2V73.6z M69.1,73.6c0,1.1-0.9,2-2,2H55
	c-1.1,0-2-0.9-2-2V26.4c0-1.1,0.9-2,2-2h12.1c1.1,0,2,0.9,2,2V73.6z"/>
</svg>
