<svg xmlns="http://www.w3.org/2000/svg" viewBox="0 0 100 100"><title>fast-10</title><g id="註解"><path d="M80,66.57c-8.4-4.16-12.09-13-15.66-21.57-2.43-5.82-4.92-11.77-8.92-16.17A8.45,8.45,0,0,0,53.82,14.6h0A8.46,8.46,0,0,0,44,28.05L18.08,82.66a2.5,2.5,0,1,0,4.52,2.15L35,58.77c5.31-.16,9.47,3,14.25,6.51C54.89,69.51,61.71,74.6,72,74.6a35,35,0,0,0,7.12-.76,3.8,3.8,0,0,0,3-3.28A3.88,3.88,0,0,0,80,66.57ZM47,20.73a3.46,3.46,0,0,1,4.62-1.62h0A3.46,3.46,0,1,1,47,20.73ZM52.2,61.27c-4.44-3.31-9-6.72-14.76-7.39l11.2-23.34a8.41,8.41,0,0,0,1.5.15h0c4.32,3.7,6.88,9.83,9.56,16.24C63.1,55,66.88,64.07,75,69.43,64.65,70.56,58.33,65.84,52.2,61.27Z"/></g></svg>