<?xml version="1.0" encoding="utf-8"?>
<!-- Generator: Adobe Illustrator 24.0.1, SVG Export Plug-In . SVG Version: 6.00 Build 0)  -->
<svg version="1.1" id="圖層_1" xmlns="http://www.w3.org/2000/svg" xmlns:xlink="http://www.w3.org/1999/xlink" x="0px" y="0px"
	 viewBox="0 0 100 100" style="enable-background:new 0 0 100 100;" xml:space="preserve">
<title>fast-02</title>
<g id="註解">
	<path d="M95.4,9.9H4.6C2.1,9.9,0,12,0,14.5l0,0v70.9c0,2.5,2.1,4.6,4.6,4.6h90.8c2.5,0,4.6-2.1,4.6-4.6V14.5
		C100,12,98,9.9,95.4,9.9L95.4,9.9z M90.8,19.1v41.4L77.9,49.9c-1.7-1.4-4.3-1.4-6,0.1L60.5,60.1l-28-25.1c-1.7-1.5-4.3-1.6-6.1-0.1
		L9.2,49.5V19.1H90.8z M9.2,61.6l0.2-0.1l19.9-17l24.2,21.7L36.8,80.9H9.2V61.6z M50.8,80.9L75,59.5l15.4,12.6
		c0.1,0.1,0.2,0.2,0.4,0.2v8.4H50.8z"/>
	<circle cx="62.5" cy="36.3" r="7.3"/>
</g>
</svg>
