<?xml version="1.0" encoding="utf-8"?>
<!-- Generator: Adobe Illustrator 21.0.0, SVG Export Plug-In . SVG Version: 6.00 Build 0)  -->
<svg version="1.1" id="圖層_1" xmlns="http://www.w3.org/2000/svg" xmlns:xlink="http://www.w3.org/1999/xlink" x="0px" y="0px"
	 viewBox="0 0 100 100" style="enable-background:new 0 0 100 100;" xml:space="preserve">
<style type="text/css">
	.st0{fill:#32BEA6;}
</style>
<path class="st0" d="M50,0C22.4,0,0,22.4,0,50c0,27.6,22.4,50,50,50c27.6,0,50-22.4,50-50C100,22.4,77.6,0,50,0z M74.7,52.8
	L39.5,74.3c-0.5,0.3-1.1,0.5-1.7,0.5c-0.5,0-1.1-0.1-1.6-0.4c-1-0.6-1.6-1.6-1.6-2.8V28.5c0-1.1,0.6-2.2,1.6-2.8
	c1-0.6,2.3-0.5,3.2,0.1l35.3,21.7c0.9,0.6,1.5,1.6,1.5,2.7C76.2,51.2,75.7,52.3,74.7,52.8z"/>
</svg>
