<svg xmlns="http://www.w3.org/2000/svg" viewBox="0 0 100 100"><title>printer</title><g id="註解"><path d="M77.16,29.73H74.31V24a9.73,9.73,0,0,0-9.63-9.81H35.31A9.73,9.73,0,0,0,25.69,24v5.76H22.84A9.82,9.82,0,0,0,13,39.54V60.69a9.82,9.82,0,0,0,9.81,9.81h5.28V76c0,5.41,4,9.81,8.91,9.81H63c4.91,0,8.91-4.4,8.91-9.81V70.5h5.28A9.82,9.82,0,0,0,87,60.69V39.54A9.82,9.82,0,0,0,77.16,29.73ZM32.69,24a2.76,2.76,0,0,1,2.63-2.81H64.69A2.76,2.76,0,0,1,67.31,24v5.76H32.69Zm32.2,35.54V76c0,1.61-1,2.81-1.91,2.81H37c-.9,0-1.91-1.2-1.91-2.81V59.29c0-.1,0-.2,0-.29H64.94A3.47,3.47,0,0,0,64.88,59.52ZM80,60.69a2.81,2.81,0,0,1-2.81,2.81H71.88v-4a3.47,3.47,0,0,0-.05-.53h.61a3.5,3.5,0,0,0,0-7H27.56a3.5,3.5,0,1,0,0,7h.59c0,.1,0,.19,0,.29V63.5H22.84A2.81,2.81,0,0,1,20,60.69V39.54a2.81,2.81,0,0,1,2.81-2.81H77.16A2.81,2.81,0,0,1,80,39.54Z"/><circle cx="68.14" cy="44.73" r="3.63"/></g></svg>