<svg xmlns="http://www.w3.org/2000/svg" viewBox="0 0 100 100"><title>process</title><g id="註解"><path d="M68.31,54.46,66.45,42.89a9.22,9.22,0,0,0-3.09-6,7.26,7.26,0,0,0-5.85-1.3,1.87,1.87,0,1,0,.59,3.69,3.64,3.64,0,0,1,2.94.54,5.6,5.6,0,0,1,1.7,3.5l.83,5.17A8.47,8.47,0,0,0,51.89,53a6.24,6.24,0,0,0-3.79,0,8.47,8.47,0,0,0-11.66-4.6l.81-5,0-.14A5.6,5.6,0,0,1,39,39.78a3.64,3.64,0,0,1,2.94-.54,1.87,1.87,0,1,0,.59-3.69,7.26,7.26,0,0,0-5.85,1.3,9.22,9.22,0,0,0-3.09,6L31.69,54.46a1.86,1.86,0,0,0,0,.71,8.5,8.5,0,1,0,16.92,1.66,2.86,2.86,0,0,1,2.73,0,8.5,8.5,0,1,0,16.92-1.66A1.86,1.86,0,0,0,68.31,54.46ZM40.17,60.84a4.77,4.77,0,1,1,4.77-4.77A4.77,4.77,0,0,1,40.17,60.84Zm19.66,0a4.77,4.77,0,1,1,4.77-4.77A4.77,4.77,0,0,1,59.83,60.84Z"/><path d="M72.73,27.27A32.14,32.14,0,1,0,82.14,50,31.93,31.93,0,0,0,72.73,27.27ZM69.19,69.19a27.14,27.14,0,1,1,0-38.39A27,27,0,0,1,69.19,69.19Z"/></g></svg>