<?xml version="1.0" encoding="utf-8"?>
<!-- Generator: Adobe Illustrator 24.0.1, SVG Export Plug-In . SVG Version: 6.00 Build 0)  -->
<svg version="1.1" id="圖層_1" xmlns="http://www.w3.org/2000/svg" xmlns:xlink="http://www.w3.org/1999/xlink" x="0px" y="0px"
	 viewBox="0 0 100 100" style="enable-background:new 0 0 100 100;" xml:space="preserve">
<style type="text/css">
	.st0{fill-rule:evenodd;clip-rule:evenodd;}
</style>
<path class="st0" d="M50.7,22.1c12,0,19.4,5.7,19.4,14.6c0,4-1.3,7-4,9.6c-1.6,1.4-2.2,1.9-7.9,5.4c-2.7,1.8-3.7,3.4-3.7,6.4
	c0,0.8,0.1,1.5,0.2,2.5H42.6c0.1-1,0.1-1.1,0.1-3c0-4.5,0.8-7.1,2.9-9.6c1.6-1.8,2.1-2.2,6.7-5c3.2-1.9,4.2-3.3,4.2-5.4
	c0-3.1-2.3-4.9-6.2-4.9c-2.9,0-5.1,1-6.3,3.1c-0.7,1-0.9,2-1.2,4l-13.4-1.2c0.7-4.7,1.7-7.2,4.2-10C37.4,24.3,43.2,22.1,50.7,22.1z
	 M42.2,77.4V65.1h13.1v12.3H42.2z M87.2,0c7,0,12.8,5.8,12.8,12.8v74.4c0,7.1-5.8,12.8-12.8,12.8H12.8C5.8,100,0,94.2,0,87.2V12.8
	C0,5.8,5.8,0,12.8,0H87.2z M89.7,87.2V12.8c0-1.4-1.2-2.6-2.6-2.6H12.8c-1.4,0-2.6,1.2-2.6,2.6v74.4c0,1.4,1.2,2.6,2.6,2.6h74.4
	C88.6,89.7,89.7,88.6,89.7,87.2z"/>
</svg>
