<?xml version="1.0" encoding="utf-8"?>
<!-- Generator: Adobe Illustrator 21.0.0, SVG Export Plug-In . SVG Version: 6.00 Build 0)  -->
<svg version="1.1" id="图层_1" xmlns="http://www.w3.org/2000/svg" xmlns:xlink="http://www.w3.org/1999/xlink" x="0px" y="0px"
	 viewBox="0 0 100 100" style="enable-background:new 0 0 100 100;" xml:space="preserve">
<title>clock</title>
<path d="M77.4,37c3,0,5.4-2.4,5.4-5.4v-4.2c0-3-2.4-5.4-5.4-5.4h-6.2v-3.2c0-2-1.6-3.6-3.6-3.6c-2,0-3.6,1.6-3.6,3.6v3.2H36.3v-3.2
	c0-2-1.6-3.6-3.6-3.6s-3.6,1.6-3.6,3.6v3.2h-6.2c-3,0-5.4,2.4-5.4,5.4v4.2c0,3,2.4,5.4,5.4,5.4h6.2v4.4h-6.2c-3,0-5.4,2.4-5.4,5.4
	V51c0,3,2.4,5.4,5.4,5.4h6.2V61h-6.2c-3,0-5.4,2.4-5.4,5.4v4.2c0,3,2.4,5.4,5.4,5.4h6.2v4.4c0,2,1.6,3.6,3.6,3.6s3.6-1.6,3.6-3.6
	v-4.4H64v4.4c0,2,1.6,3.6,3.6,3.6c2,0,3.6-1.6,3.6-3.6v-4.4h6.2c3,0,5.4-2.4,5.4-5.4v-4.2c0-3-2.4-5.4-5.4-5.4h-6.2v-4.6h6.2
	c3,0,5.4-2.4,5.4-5.4v-4.2c0-3-2.4-5.4-5.4-5.4h-6.2V37H77.4z M77.4,66.3l0,4.2H22.9v-4.2H77.4z M36.3,61v-4.6H64V61H36.3z
	 M77.4,46.8l0,4.2H22.9v-4.2H77.4z M36.3,41.4V37H64v4.4H36.3z M22.9,31.7v-4.2h54.5l0,4.2H22.9z"/>
</svg>
