<?xml version="1.0" encoding="utf-8"?>
<!-- Generator: Adobe Illustrator 16.0.0, SVG Export Plug-In . SVG Version: 6.00 Build 0)  -->
<!DOCTYPE svg PUBLIC "-//W3C//DTD SVG 1.1//EN" "http://www.w3.org/Graphics/SVG/1.1/DTD/svg11.dtd">
<svg version="1.1" id="圖層_1" xmlns="http://www.w3.org/2000/svg" xmlns:xlink="http://www.w3.org/1999/xlink" x="0px" y="0px"
	 width="100px" height="100px" viewBox="0 0 100 100" enable-background="new 0 0 100 100" xml:space="preserve">
<path fill="#040000" d="M98.586,38.021c-1.728-1.493-4.478-1.335-5.892,0.471l-2.592,3.221C86.175,20.66,67.635,4.556,45.404,4.556
	C20.346,4.556,0,24.98,0,50.04c0,25.058,20.346,45.404,45.404,45.404c15.082,0,29.223-7.463,37.629-20.031
	c1.57-2.355,0.941-5.498-1.337-7.07c-2.356-1.57-5.499-0.941-7.069,1.338c-6.6,9.738-17.518,15.553-29.223,15.553
	c-19.403,0-35.192-15.791-35.192-35.193c0-19.402,15.789-35.193,35.192-35.193c17.204,0,31.501,12.412,34.564,28.672l-3.928-3.142
	c-1.808-1.414-4.479-1.021-5.813,0.864c-1.257,1.807-0.863,4.32,0.864,5.656l12.334,9.739c0.863,0.709,2.12,1.023,3.142,0.867
	c1.021-0.158,2.121-0.631,2.828-1.494l9.741-12.333C100.472,42.027,100.235,39.435,98.586,38.021z"/>
</svg>
