<svg xmlns="http://www.w3.org/2000/svg" viewBox="0 0 100 100"><defs><style>.cls-1{fill:#6a9c78;}</style></defs><title>service</title><g id="註解"><path class="cls-1" d="M53.52,43.82A2.37,2.37,0,0,0,51.73,43a9.29,9.29,0,0,0-3.61.67,12.23,12.23,0,0,0-3.82,2.65,8.4,8.4,0,0,0-1.5,1.83,1.21,1.21,0,0,0-.08.34,1.47,1.47,0,0,0,.32-.08,9.17,9.17,0,0,1,2.52-.87,3,3,0,0,1,1.44,0,.62.62,0,0,1,.43.87c0,.1-.07.2-.12.3-.42,1-.85,2-1.26,2.94A65.59,65.59,0,0,0,43.5,58.6,9.85,9.85,0,0,0,43,61.09c0,.14,0,.27,0,.4a2.89,2.89,0,0,0,2.28,2.76,5.4,5.4,0,0,0,3.54-.42A7.38,7.38,0,0,0,51.13,62a16.79,16.79,0,0,0,2.75-3.82,4.31,4.31,0,0,0,.3-.83c.07-.26,0-.39-.31-.36a2,2,0,0,0-.65.16c-.51.24-1,.52-1.51.76a5.5,5.5,0,0,1-1.05.39.54.54,0,0,1-.67-.69,4.93,4.93,0,0,1,.25-.81c.92-2.23,1.86-4.46,2.78-6.7q.66-1.61,1.26-3.24a2.89,2.89,0,0,0,.15-1.65A3.13,3.13,0,0,0,53.52,43.82Z"/><path class="cls-1" d="M52.62,35.62a3.18,3.18,0,1,0,3.18,3.18A3.18,3.18,0,0,0,52.62,35.62Z"/><path class="cls-1" d="M73.93,41.62a24.9,24.9,0,0,0-45.28-5.92,20.52,20.52,0,0,0,3.76,40.7H70.53a17.55,17.55,0,0,0,3.4-34.78Zm-3.4,28.92H32.4a14.66,14.66,0,0,1-1.6-29.23,2.93,2.93,0,0,0,2.29-1.56,19,19,0,0,1,35.58,5.08,2.93,2.93,0,0,0,2.67,2.36,11.69,11.69,0,0,1-.82,23.36Z"/></g></svg>