<?xml version="1.0" encoding="utf-8"?>
<!-- Generator: Adobe Illustrator 24.0.1, SVG Export Plug-In . SVG Version: 6.00 Build 0)  -->
<svg version="1.1" id="圖層_1" xmlns="http://www.w3.org/2000/svg" xmlns:xlink="http://www.w3.org/1999/xlink" x="0px" y="0px"
	 viewBox="0 0 100 100" style="enable-background:new 0 0 100 100;" xml:space="preserve">
<style type="text/css">
	.st0{fill-rule:evenodd;clip-rule:evenodd;}
</style>
<title>clock</title>
<path id="SVGID_13_" class="st0" d="M88.3,68.3c2-0.7,4.2,0.1,5,1.9c0.8,1.8-0.1,3.9-2.1,4.7L83,78c-0.5,0.2-1,0.3-1.5,0.3
	c-1.5,0-3-0.8-3.6-2.2c-0.8-1.8,0.1-3.9,2.1-4.7L88.3,68.3z M99.7,56.4c0.8,1.8-0.1,3.9-2.1,4.7l-8.2,3.1c-0.5,0.2-1,0.3-1.5,0.3
	c-1.5,0-3-0.8-3.6-2.2c-0.8-1.8,0.1-3.9,2.1-4.7l8.2-3.1C96.6,53.7,98.9,54.5,99.7,56.4z M80,64.4c0.8,1.8-0.1,3.9-2.1,4.7
	L49.7,79.8c-0.5,0.2-1,0.3-1.5,0.3c-1.5,0-3-0.8-3.6-2.2c-0.8-1.8,0.1-3.9,2.1-4.7L75,62.5C77,61.7,79.2,62.6,80,64.4z M46.9,64.3
	c0.7,1.8-0.3,3.8-2.1,4.5L21.2,78c-0.5,0.2-1,0.3-1.5,0.3c-0.5,0-1-0.1-1.5-0.3c-1-0.4-1.7-1-2.1-1.9L0.3,41.5
	c-0.6-1.3-0.3-2.7,0.6-3.7c1-1,2.5-1.5,3.9-1.1c16,3.9,21.1-4.4,25.1-13.3c0.2-0.5,0.4-0.9,0.6-1.3c0.4-0.9,1.2-1.6,2.2-1.9
	c1-0.3,2.1-0.3,3.1,0.1c1.1,0.5,3.2,1.1,6,1.7c1-1.4,3-2,4.7-1.3c1.2,0.5,2,1.4,2.3,2.6c0.9,0.1,1.8,0.3,2.7,0.4
	c0.8-1.8,3.1-2.6,5-1.9c1.2,0.5,2,1.4,2.3,2.5c4.8,0.2,9.2,0,11.8-1c5.1-2,10.5-1.4,15.7,1.7c3.6,2.1,5.8,4.7,6,5
	c0.2,0.2,0.4,0.5,0.5,0.8l6,13.1c0.4,0.9,0.4,1.9,0,2.7c-0.4,0.9-1.1,1.6-2.1,1.9L56.1,64.4c-1,0.4-2.1,0.4-3.1,0
	c-1-0.4-1.7-1.1-2.1-2.1l-0.9-2.2l-4.2,1.6L46.9,64.3z M73.5,29.9c-1.5,0.6-3.2,1-5.2,1.2c0.4,4-1.3,9.2-8.2,11.9
	c-10.2,4-15.4,7.7-16.1,11.7l6.8-2.6c1-0.4,2.1-0.4,3.1,0c1,0.4,1.7,1.1,2.1,2.1l0.9,2.2l33.3-13l-4.3-9.3
	C84.6,32.7,79.3,27.6,73.5,29.9z M18.4,62.8l3.3,7.2l6-2.3C25,63.3,21.1,62.6,18.4,62.8z M34.9,64.9l3.4-1.3l-1-2.6c0,0,0,0,0,0
	c-6.3-14.4,13.3-22,19.8-24.5c3.6-1.4,3.8-3.6,3.5-4.9c-1.4,0-2.9-0.1-4.3-0.2l-1.3,2.8c-0.6,1.4-2.1,2.2-3.6,2.2
	c-0.5,0-1-0.1-1.5-0.3c-2-0.8-2.9-2.8-2.1-4.7l0.4-0.9c-0.7-0.1-1.3-0.2-2-0.3L43.2,37c-0.6,1.4-2.1,2.2-3.6,2.2
	c-0.5,0-1-0.1-1.5-0.3c-2-0.8-2.9-2.8-2.1-4.7l2.5-5.6c-0.9-0.2-1.7-0.4-2.4-0.6c-3.1,6.7-9.6,17.8-26.1,16.7L15.3,56
	C21.1,54.9,29.8,55.9,34.9,64.9z"/>
</svg>
