<svg xmlns="http://www.w3.org/2000/svg" viewBox="0 0 100 100"><defs><style>.cls-1{fill:#6a9c78;}</style></defs><title>shop</title><g id="註解"><path class="cls-1" d="M38.15,37.76c-5.29,0-9.6,4.77-9.6,10.63a10.53,10.53,0,0,0,7,10.24v15a2.57,2.57,0,0,0,5.13,0v-15a10.53,10.53,0,0,0,7-10.24C47.76,42.53,43.45,37.76,38.15,37.76Zm0,16.13c-2.46,0-4.47-2.47-4.47-5.5s2-5.5,4.47-5.5,4.47,2.47,4.47,5.5S40.62,53.89,38.15,53.89Z"/><path class="cls-1" d="M68.56,39.42A2.57,2.57,0,0,0,66,42v8.65a.64.64,0,0,1-.42.13H63.15V41.59a2.57,2.57,0,1,0-5.13,0v9.18H55.59a.64.64,0,0,1-.42-.13V42A2.57,2.57,0,0,0,50,42v8.74a5.38,5.38,0,0,0,5.55,5.18H58V73.63a2.57,2.57,0,0,0,5.13,0V55.9h2.43a5.38,5.38,0,0,0,5.55-5.18V42A2.57,2.57,0,0,0,68.56,39.42Z"/><path class="cls-1" d="M86.16,39l-31-24.74a8.19,8.19,0,0,0-10.23,0L13.84,39a8.34,8.34,0,0,0-2.68,9.39A8.19,8.19,0,0,0,19,53.92h.23V82.45a5.13,5.13,0,0,0,5.13,5.13H75.68a5.13,5.13,0,0,0,5.13-5.13V53.92H81a8.19,8.19,0,0,0,7.8-5.58A8.34,8.34,0,0,0,86.16,39ZM81,48.79H75.68V82.45H24.32V48.79H19A3.27,3.27,0,0,1,17,43l31-24.74a3.06,3.06,0,0,1,3.83,0L83,43A3.27,3.27,0,0,1,81,48.79Z"/></g></svg>