<?xml version="1.0" encoding="utf-8"?>
<!-- Generator: Adobe Illustrator 24.0.1, SVG Export Plug-In . SVG Version: 6.00 Build 0)  -->
<svg version="1.1" id="圖層_1" xmlns="http://www.w3.org/2000/svg" xmlns:xlink="http://www.w3.org/1999/xlink" x="0px" y="0px"
	 viewBox="0 0 100 100" style="enable-background:new 0 0 100 100;" xml:space="preserve">
<style type="text/css">
	.st0{fill-rule:evenodd;clip-rule:evenodd;}
</style>
<path class="st0" d="M99.4,8.1c1.1,2.4,0.7,5.2-1.1,7.2L76.4,40.3l16.8,0h0c3.7,0,6.7,3,6.7,6.7c0,3.7-3,6.7-6.7,6.7l-31.6,0h0
	c-2.6,0-5-1.5-6.1-3.9c-1.1-2.4-0.7-5.2,1.1-7.2l21.9-24.9l-16.8,0h0c-3.7,0-6.7-3-6.7-6.7c0-3.7,3-6.7,6.7-6.7l31.6,0h0
	C95.9,4.2,98.3,5.7,99.4,8.1z M34.8,50.9c1.8,2,2.2,4.8,1.2,7.2l-8.8,20.2l9-2.9c3.5-1.1,7.3,0.8,8.4,4.3c1.1,3.5-0.8,7.3-4.3,8.4
	l0,0l-23.1,7.4c-2.5,0.8-5.3,0.1-7-1.9c-1.8-2-2.2-4.8-1.2-7.2l8.8-20.2l-9,2.9c-3.5,1.1-7.3-0.8-8.4-4.3c-1.1-3.5,0.8-7.3,4.3-8.4
	l0,0L27.8,49C30.3,48.2,33,48.9,34.8,50.9z"/>
</svg>
