<?xml version="1.0" encoding="utf-8"?>
<!-- Generator: Adobe Illustrator 24.0.1, SVG Export Plug-In . SVG Version: 6.00 Build 0)  -->
<svg version="1.1" id="圖層_1" xmlns="http://www.w3.org/2000/svg" xmlns:xlink="http://www.w3.org/1999/xlink" x="0px" y="0px"
	 viewBox="0 0 100 100" style="enable-background:new 0 0 100 100;" xml:space="preserve">
<style type="text/css">
	.st0{fill-rule:evenodd;clip-rule:evenodd;}
</style>
<path class="st0" d="M38.4,78.6c0.5,0,0.9,0.2,1.3,0.5c0.3,0.3,0.5,0.8,0.5,1.3c0,0.4-0.2,0.9-0.6,1.3L21.8,99.5
	c-0.4,0.3-0.8,0.5-1.3,0.5c-0.4,0-0.9-0.2-1.3-0.5L1.4,81.6c-0.6-0.6-0.7-1.2-0.4-2c0.3-0.7,0.9-1.1,1.7-1.1h10.7V1.8
	c0-0.5,0.2-0.9,0.5-1.3C14.3,0.2,14.7,0,15.2,0h10.7c0.5,0,0.9,0.2,1.3,0.5c0.3,0.3,0.5,0.8,0.5,1.3v76.8H38.4z M99.1,12.5
	c0,0.5-0.2,0.9-0.5,1.3c-0.3,0.3-0.8,0.5-1.3,0.5H50.9c-0.5,0-0.9-0.2-1.3-0.5c-0.3-0.3-0.5-0.8-0.5-1.3V1.8c0-0.5,0.2-0.9,0.5-1.3
	C50,0.2,50.4,0,50.9,0h46.4c0.5,0,0.9,0.2,1.3,0.5c0.3,0.3,0.5,0.8,0.5,1.3V12.5z M49.6,29.1c0.3-0.3,0.8-0.5,1.3-0.5h35.7
	c0.5,0,0.9,0.2,1.3,0.5c0.3,0.3,0.5,0.8,0.5,1.3v10.7c0,0.5-0.2,0.9-0.5,1.3c-0.3,0.3-0.8,0.5-1.3,0.5H50.9c-0.5,0-0.9-0.2-1.3-0.5
	c-0.3-0.3-0.5-0.8-0.5-1.3V30.4C49.1,29.8,49.3,29.4,49.6,29.1z M49.6,57.6c0.3-0.3,0.8-0.5,1.3-0.5h25c0.5,0,0.9,0.2,1.3,0.5
	c0.3,0.3,0.5,0.8,0.5,1.3v10.7c0,0.5-0.2,0.9-0.5,1.3c-0.3,0.3-0.8,0.5-1.3,0.5h-25c-0.5,0-0.9-0.2-1.3-0.5
	c-0.3-0.3-0.5-0.8-0.5-1.3V58.9C49.1,58.4,49.3,58,49.6,57.6z M49.6,86.2c0.3-0.3,0.8-0.5,1.3-0.5h14.3c0.5,0,0.9,0.2,1.3,0.5
	c0.3,0.3,0.5,0.8,0.5,1.3v10.7c0,0.5-0.2,0.9-0.5,1.3c-0.3,0.3-0.8,0.5-1.3,0.5H50.9c-0.5,0-0.9-0.2-1.3-0.5
	c-0.3-0.3-0.5-0.8-0.5-1.3V87.5C49.1,87,49.3,86.6,49.6,86.2z"/>
</svg>
