<svg xmlns="http://www.w3.org/2000/svg" viewBox="0 0 100 100"><title>speaker</title><g id="註解"><path d="M52.26,22.37a4,4,0,0,0-4,0l-16.73,10H19.33a4,4,0,0,0-4,4V63.54a4,4,0,0,0,4,4H31.5l16.73,10a4,4,0,0,0,6.06-3.43V25.85A4,4,0,0,0,52.26,22.37ZM27.92,59.54H23.33V40.46h4.58Zm18.37,7.54L35.92,60.86V39.14l10.37-6.22Z"/><path d="M70.59,50A13.14,13.14,0,0,0,64.5,38.9a4,4,0,1,0-4.32,6.73,5.17,5.17,0,0,1,0,8.73A4,4,0,1,0,64.5,61.1,13.14,13.14,0,0,0,70.59,50Z"/><path d="M72.93,28.59a4,4,0,1,0-4.32,6.73,17.39,17.39,0,0,1,0,29.35,4,4,0,1,0,4.32,6.73,25.39,25.39,0,0,0,0-42.82Z"/></g></svg>