<?xml version="1.0" encoding="utf-8"?>
<!-- Generator: Adobe Illustrator 21.0.0, SVG Export Plug-In . SVG Version: 6.00 Build 0)  -->
<svg version="1.1" id="圖層_1" xmlns="http://www.w3.org/2000/svg" xmlns:xlink="http://www.w3.org/1999/xlink" x="0px" y="0px"
	 viewBox="0 0 100 100" style="enable-background:new 0 0 100 100;" xml:space="preserve">
<style type="text/css">
	.st0{fill:#231815;}
</style>
<g>
	<path class="st0" d="M78.9,46.2L78.9,46.2l-2.3-18.9c0-0.1,0-0.2,0-0.3c-0.6-2.9-2.8-5.1-5.7-5.6h-0.3l-18.9-2.3
		c-0.2,0-0.5-0.1-0.8-0.1c-1.2,0-2.2,0.5-3,1.4L20.6,47.9c-2.2,2.3-2.1,5.9,0.2,8.1L42,77.2c1,1,2.4,1.7,3.8,1.8h0.5
		c1.5,0,2.8-0.6,3.9-1.6l27.5-27.5C78.7,49,79.2,47.6,78.9,46.2z M46.2,70L28,51.8l24.6-24.6l16.2,2l2,16.2L46.2,70z"/>
	<ellipse transform="matrix(0.7071 -0.7071 0.7071 0.7071 -8.6494 53.8274)" class="st0" cx="60.7" cy="37.4" rx="4.3" ry="4.3"/>
</g>
</svg>
