<?xml version="1.0" encoding="utf-8"?>
<!-- Generator: Adobe Illustrator 24.0.1, SVG Export Plug-In . SVG Version: 6.00 Build 0)  -->
<svg version="1.1" id="圖層_1" xmlns="http://www.w3.org/2000/svg" xmlns:xlink="http://www.w3.org/1999/xlink" x="0px" y="0px"
	 viewBox="0 0 100 100" style="enable-background:new 0 0 100 100;" xml:space="preserve">
<style type="text/css">
	.st0{fill-rule:evenodd;clip-rule:evenodd;}
</style>
<path id="SVGID_25_" class="st0" d="M94.1,44.9c3,0.4,5.6,1.9,5.9,4.9c0.3,3-1.9,5.6-4.9,5.9c-3.5,0.3-7.6-5.2-12.4-5.9
	C83.4,48,91.4,44.6,94.1,44.9z M87.8,40.3c-2,2.9-8.8,2.7-12.3,6c-0.9-1.7,1.3-10.1,3.3-12c2.1-2.1,5-3.2,7.5-1.5
	C88.7,34.4,89.4,37.8,87.8,40.3z M63.6,53.6c3.4,1.3,6,3.6,7.5,5.7c1.8,2.4,4.1,10.2-0.4,13.2c-6.5,4.3-10.8,2.2-15.1-2.2
	c-1.5-1.5-2.6-2.8-3.7-3.8c-1.5,0.9-3.2,1.8-4.9,2.6c-6.1,3-12.1,4.3-17.7,4.3c-10.2,0-19.1-4.3-24.7-10.3C2,60.6-0.8,57,0.2,53.6
	c1.3-4.1,6.9-5.2,14.7-6.8c5.7-1.2,12.7-2.6,19.2-5.5c6.5-2.9,11.8-7,16.1-10.4c5.3-4.1,8.8-6.9,12-5.2c2.7,1.3,3.7,5,3.5,13.1
	C65.7,45,65,49.8,63.6,53.6z M7.9,60.1c10.1,10.6,23.7,9.7,32.6,6.7c0.7-7.8,6.7-12.2,12.9-13.7c2-0.5,3.8-0.6,5.6-0.5
	c1.4-3.4,2-7.8,2.1-13.9c0.1-6.8-0.7-8.4-0.9-8.8c-1.2,0.1-4.6,2.7-7.1,4.7C48.6,38,43,42.4,36,45.5c-7,3.1-14.3,4.6-20.2,5.8
	c-4.8,1-10.7,2.2-11.1,3.7C4.7,55.1,4.4,56.3,7.9,60.1z"/>
</svg>
