<?xml version="1.0" encoding="utf-8"?>
<!-- Generator: Adobe Illustrator 24.0.1, SVG Export Plug-In . SVG Version: 6.00 Build 0)  -->
<svg version="1.1" id="圖層_1" xmlns="http://www.w3.org/2000/svg" xmlns:xlink="http://www.w3.org/1999/xlink" x="0px" y="0px"
	 viewBox="0 0 100 100" style="enable-background:new 0 0 100 100;" xml:space="preserve">
<style type="text/css">
	.st0{fill-rule:evenodd;clip-rule:evenodd;}
</style>
<title>tel</title>
<path class="st0" d="M20.1,43.3C28.1,59,41,71.8,56.7,79.9l12.2-12.2c1.5-1.5,3.7-2,5.7-1.3c6.2,2.1,12.9,3.2,19.8,3.2
	c3.1,0,5.6,2.5,5.6,5.6v19.4c0,3.1-2.5,5.6-5.6,5.6C42.3,100,0,57.7,0,5.6C0,2.5,2.5,0,5.6,0H25c3.1,0,5.6,2.5,5.6,5.6
	c0,6.9,1.1,13.6,3.2,19.8c0.6,1.9,0.2,4.1-1.4,5.7L20.1,43.3z"/>
</svg>
