<?xml version="1.0" encoding="utf-8"?>
<!-- Generator: Adobe Illustrator 21.0.0, SVG Export Plug-In . SVG Version: 6.00 Build 0)  -->
<svg version="1.1" id="圖層_1" xmlns="http://www.w3.org/2000/svg" xmlns:xlink="http://www.w3.org/1999/xlink" x="0px" y="0px"
	 viewBox="0 0 100 100" style="enable-background:new 0 0 100 100;" xml:space="preserve">
<title>clock</title>
<g>
	<g>
		<path d="M81.5,38.9L76.5,34c-1.5,1.5-3.2,2.2-5.3,2.2c-2.1,0-3.9-0.7-5.3-2.2c-1.5-1.5-2.2-3.2-2.2-5.3s0.7-3.9,2.2-5.3L61,18.5
			c-0.9-1-2.1-1.5-3.5-1.5c-1.4,0-2.6,0.5-3.6,1.5L18.5,53.9c-1,0.9-1.5,2.1-1.5,3.5c0,1.4,0.5,2.6,1.5,3.6l4.9,4.9
			c1.5-1.5,3.2-2.2,5.3-2.2s3.9,0.7,5.3,2.2c1.5,1.5,2.2,3.2,2.2,5.3c0,2.1-0.7,3.9-2.2,5.3l4.9,4.9c1,1,2.2,1.5,3.6,1.5
			s2.6-0.5,3.6-1.5L81.5,46c1-1,1.5-2.2,1.5-3.6C82.9,41,82.5,39.8,81.5,38.9z M70.9,46.7L46.7,70.9c-0.5,0.5-1.1,0.7-1.8,0.7
			c-0.7,0-1.3-0.3-1.8-0.7L29,56.7c-0.5-0.5-0.7-1.1-0.7-1.8c0-0.7,0.3-1.3,0.7-1.8l24.2-24.2c0.5-0.5,1.1-0.7,1.8-0.7
			c0.7,0,1.3,0.3,1.8,0.7l14.2,14.2c0.5,0.5,0.7,1.1,0.7,1.8C71.6,45.6,71.4,46.2,70.9,46.7z"/>
		<path d="M55,32.6L67.4,45L45,67.3L32.6,55L55,32.6z"/>
	</g>
</g>
</svg>
