<svg xmlns="http://www.w3.org/2000/svg" viewBox="0 0 100 100"><title>tile</title><g id="註解"><path d="M43.33,22.92h-17a4,4,0,0,0-4,4v17a4,4,0,0,0,4,4h17a4,4,0,0,0,4-4v-17A4,4,0,0,0,43.33,22.92Zm-4,17h-9v-9h9Z"/><path d="M43.33,52.08h-17a4,4,0,0,0-4,4v17a4,4,0,0,0,4,4h17a4,4,0,0,0,4-4v-17A4,4,0,0,0,43.33,52.08Zm-4,17h-9v-9h9Z"/><path d="M73.67,22.92h-17a4,4,0,0,0-4,4v17a4,4,0,0,0,4,4h17a4,4,0,0,0,4-4v-17A4,4,0,0,0,73.67,22.92Zm-4,17h-9v-9h9Z"/><path d="M73.67,52.08h-17a4,4,0,0,0-4,4v17a4,4,0,0,0,4,4h17a4,4,0,0,0,4-4v-17A4,4,0,0,0,73.67,52.08Zm-4,17h-9v-9h9Z"/></g></svg>