<svg xmlns="http://www.w3.org/2000/svg" viewBox="0 0 100 100"><defs><style>.cls-1{fill:#6a9c78;}</style></defs><title>tour</title><g id="註解"><circle class="cls-1" cx="29.22" cy="56.29" r="3.84"/><circle class="cls-1" cx="70.78" cy="33.52" r="3.84"/><path class="cls-1" d="M62.31,65.4c-3.61-1.94-4.84-3.52-5.08-4.11.67-.7,4-2.29,12.62-2.29a3.48,3.48,0,0,0,1.41-.3,3.49,3.49,0,0,0,2-1C75.7,55.2,87.64,42.36,87.64,34a16.86,16.86,0,1,0-33.73,0c0,5.59,5.33,13.17,9.58,18.33-7.69.81-12.09,3.25-13.11,7.29-.61,2.42-.3,7.18,8.61,12a51.13,51.13,0,0,1,6.33,3.87c-4.73.69-14.73.37-21.18.16-2.64-.08-5.32-.17-7.9-.22,4.29-5.16,9.82-12.93,9.82-18.62a16.86,16.86,0,1,0-33.73,0C12.36,65.13,24.3,78,26.7,80.46a3.37,3.37,0,0,0,3.09,1,3.47,3.47,0,0,0,2.28.86c3.61,0,7.8.13,11.86.26,4.81.15,9,.27,12.59.27,10.65,0,16.1-1,17.23-5.25C74.95,73.2,70.26,69.67,62.31,65.4Zm8.47-41.27A9.87,9.87,0,0,1,80.64,34c0,3.47-5.16,10.7-9.87,16.08-4.7-5.38-9.86-12.61-9.86-16.08A9.87,9.87,0,0,1,70.78,24.13ZM19.36,56.76a9.86,9.86,0,1,1,19.73,0c0,3.47-5.16,10.7-9.86,16.08C24.52,67.46,19.36,60.24,19.36,56.76Z"/></g></svg>