<svg xmlns="http://www.w3.org/2000/svg" viewBox="0 0 100 100"><title>fast-08</title><g id="註解"><path d="M26.42,25.06H16.09a1,1,0,0,0-1,1V78.19a1,1,0,0,0,1,1h2.5a1,1,0,0,0,1-1V47.33h6.83a1,1,0,0,0,1-1V26.06A1,1,0,0,0,26.42,25.06Z"/><path d="M82.85,39h-.48V33.42A12.65,12.65,0,0,0,69.73,20.77H47.49A12.65,12.65,0,0,0,34.84,33.42v5.65h-.56a2.06,2.06,0,0,0-2.06,2.06v6.65a2.06,2.06,0,0,0,2.06,2.06h.56V70.15a4.24,4.24,0,0,0,2.6,3.91v3.1a2.06,2.06,0,0,0,2.06,2.06h1.82a2.06,2.06,0,0,0,2.06-2.06V74.39H73.84v2.77a2.06,2.06,0,0,0,2.06,2.06h1.82a2.06,2.06,0,0,0,2.06-2.06v-3.1a4.24,4.24,0,0,0,2.6-3.91V49.75h.48a2.06,2.06,0,0,0,2.06-2.06V41A2.06,2.06,0,0,0,82.85,39ZM47,25.59H69.54a2.2,2.2,0,0,1,2.37,2,2.2,2.2,0,0,1-2.37,2H47a2.2,2.2,0,0,1-2.37-2A2.2,2.2,0,0,1,47,25.59Zm2.18,39.95a3.73,3.73,0,1,1-4.39-4.39A3.74,3.74,0,0,1,49.18,65.54Zm25.72,0a3.73,3.73,0,1,1-4.39-4.39A3.74,3.74,0,0,1,74.91,65.53ZM76,54.7a1.17,1.17,0,0,1-1.08,1.24H41.63a1.17,1.17,0,0,1-1.08-1.24V35.77a1.17,1.17,0,0,1,1.08-1.24H74.91A1.17,1.17,0,0,1,76,35.77Z"/></g></svg>