<?xml version="1.0" encoding="utf-8"?>
<!-- Generator: Adobe Illustrator 21.0.0, SVG Export Plug-In . SVG Version: 6.00 Build 0)  -->
<svg version="1.1" id="圖層_1" xmlns="http://www.w3.org/2000/svg" xmlns:xlink="http://www.w3.org/1999/xlink" x="0px" y="0px"
	 viewBox="0 0 100 100" style="enable-background:new 0 0 100 100;" xml:space="preserve">
<path d="M50,1.6c12,0,23,4.5,31.8,12.1c8.8,7.6,15.3,18.4,18.1,30.8c0.5,2.1-0.8,4.1-2.9,4.6c-0.2,0.1-0.4,0.1-0.6,0.1
	c-3.6,0.2-7.1,1-10.4,2.2c-3.4,1.4-6.6,3.2-9.4,5.5c-1.4,1.1-3.4,1-4.8,0l0,0c-3.1-2.5-6.6-4.5-10.3-5.8c-2.5-0.8-5-1.4-7.6-1.7
	c0,12.8,0,25.7,0,38.5c0,5.8-4.9,10.7-10.7,10.7c-5.9,0-10.7-4.8-10.7-10.7c0-2.1,1.7-3.9,3.8-3.9c2.1,0,3.9,1.7,3.9,3.9
	c0,1.6,1.3,3,3,3c1.6,0,3-1.4,3-3c0-12.8,0-25.7,0-38.5c-2.6,0.3-5.1,0.9-7.6,1.7c-3.7,1.3-7.2,3.3-10.4,5.8c-1.5,1.2-3.6,1-4.9-0.2
	c-2.8-2.2-6-4-9.3-5.3c-3.2-1.3-6.7-2-10.4-2.2C1.5,49-0.1,47.1,0,45c0-0.3,0.1-0.6,0.1-0.8c2.8-12.3,9.3-23,18.1-30.6
	C27,6,38,1.6,50,1.6L50,1.6z M58.6,10.2L58.6,10.2c4.6,4.9,8.1,10.4,10.9,16.1c3.2,6.8,5.1,14,6.3,21.6c2.3-1.5,4.9-2.8,7.5-3.7
	c2.6-1,5.3-1.8,8.1-2.3c-2.8-9-7.9-16.8-14.5-22.5C71.6,14.9,65.3,11.7,58.6,10.2L58.6,10.2z M70.9,46.9L70.9,46.9
	c-1.1-6.6-2.9-12.9-5.7-18.7c-3.2-7-7.8-13.4-14.2-19l-1,0l-1,0c-6.4,5.6-11,12-14.2,19c-2.7,5.8-4.5,12.2-5.7,18.7
	c2.2-1.3,4.5-2.3,7-3.2c9-3.2,18.9-3.2,28,0C66.4,44.6,68.7,45.7,70.9,46.9L70.9,46.9z M24.3,47.9L24.3,47.9
	c1.2-7.6,3.2-14.9,6.4-21.6c2.7-5.7,6.2-11.2,10.8-16.1c-6.7,1.5-13,4.7-18.2,9.2c-6.6,5.7-11.7,13.5-14.5,22.5
	c2.8,0.5,5.5,1.3,8.1,2.3C19.4,45.2,21.9,46.4,24.3,47.9L24.3,47.9z"/>
</svg>
