<?xml version="1.0" encoding="utf-8"?>
<!-- Generator: Adobe Illustrator 21.0.0, SVG Export Plug-In . SVG Version: 6.00 Build 0)  -->
<svg version="1.1" id="圖層_1" xmlns="http://www.w3.org/2000/svg" xmlns:xlink="http://www.w3.org/1999/xlink" x="0px" y="0px"
	 viewBox="0 0 100 100" style="enable-background:new 0 0 100 100;" xml:space="preserve">
<style type="text/css">
	.st0{fill-rule:evenodd;clip-rule:evenodd;}
</style>
<path class="st0" d="M63.4,25.6c-1.6-0.9-2.1-3-1.2-4.6l2.7-4.7c0.9-1.6,3-2.1,4.6-1.2l1,0.6c1.6,0.9,2.1,3,1.2,4.6L69,24.9
	c-0.9,1.6-3,2.1-4.6,1.2L63.4,25.6z M36.6,74.4c1.6,0.9,2.1,3,1.2,4.6l-2.7,4.7c-0.9,1.6-3,2.1-4.6,1.2l-1-0.6
	c-1.6-0.9-2.1-3-1.2-4.6l2.7-4.7c0.9-1.6,3-2.1,4.6-1.2L36.6,74.4z M74.4,36.6l-0.6-1c-0.9-1.6-0.4-3.6,1.2-4.6l4.7-2.7
	c1.6-0.9,3.6-0.4,4.6,1.2l0.6,1c0.9,1.6,0.4,3.6-1.2,4.6L79,37.8C77.4,38.7,75.3,38.2,74.4,36.6z M25.6,63.4l0.6,1
	c0.9,1.6,0.4,3.6-1.2,4.6l-4.7,2.7c-1.6,0.9-3.6,0.4-4.6-1.2l-0.6-1c-0.9-1.6-0.4-3.6,1.2-4.6l4.7-2.7
	C22.6,61.3,24.7,61.8,25.6,63.4z M86.7,46.1c1.8,0,3.3,1.5,3.3,3.3v1.2c0,1.8-1.5,3.3-3.3,3.3h-5.5c-1.8,0-3.3-1.5-3.3-3.3v-1.2
	c0-1.8,1.5-3.3,3.3-3.3H86.7z M22.1,50.6c0,1.8-1.5,3.3-3.3,3.3h-5.5c-1.8,0-3.3-1.5-3.3-3.3v-1.2c0-1.8,1.5-3.3,3.3-3.3h5.5
	c1.8,0,3.3,1.5,3.3,3.3V50.6z M83.7,64.9c1.6,0.9,2.1,3,1.2,4.6l-0.6,1c-0.9,1.6-3,2.1-4.6,1.2L75.1,69c-1.6-0.9-2.1-3-1.2-4.6
	l0.6-1c0.9-1.6,3-2.1,4.6-1.2L83.7,64.9z M24.9,31c1.6,0.9,2.1,3,1.2,4.6l-0.6,1c-0.9,1.6-3,2.1-4.6,1.2l-4.7-2.7
	c-1.6-0.9-2.1-3-1.2-4.6l0.6-1c0.9-1.6,3-2.1,4.6-1.2L24.9,31z M69,75.1l2.7,4.7c0.9,1.6,0.4,3.6-1.2,4.6l-1,0.6
	c-1.6,0.9-3.6,0.4-4.6-1.2L62.2,79c-0.9-1.6-0.4-3.6,1.2-4.6l1-0.6C66,72.9,68.1,73.5,69,75.1z M31,24.9l-2.7-4.7
	c-0.9-1.6-0.4-3.6,1.2-4.6l1-0.6c1.6-0.9,3.6-0.4,4.6,1.2l2.7,4.7c0.9,1.6,0.4,3.6-1.2,4.6l-1,0.6C34,27.1,31.9,26.5,31,24.9z
	 M50.6,77.9c1.8,0,3.3,1.5,3.3,3.3v5.5c0,1.8-1.5,3.3-3.3,3.3h-1.2c-1.8,0-3.3-1.5-3.3-3.3v-5.5c0-1.8,1.5-3.3,3.3-3.3H50.6z
	 M49.4,22.1c-1.8,0-3.3-1.5-3.3-3.3v-5.5c0-1.8,1.5-3.3,3.3-3.3h1.2c1.8,0,3.3,1.5,3.3,3.3v5.5c0,1.8-1.5,3.3-3.3,3.3H49.4z
	 M50,26.8c12.8,0,23.2,10.4,23.2,23.2S62.8,73.2,50,73.2S26.8,62.8,26.8,50S37.2,26.8,50,26.8z"/>
</svg>
