<?xml version="1.0" encoding="utf-8"?>
<!-- Generator: Adobe Illustrator 24.0.1, SVG Export Plug-In . SVG Version: 6.00 Build 0)  -->
<svg version="1.1" id="圖層_1" xmlns="http://www.w3.org/2000/svg" xmlns:xlink="http://www.w3.org/1999/xlink" x="0px" y="0px"
	 viewBox="0 0 100 100" style="enable-background:new 0 0 100 100;" xml:space="preserve">
<title>fast-09</title>
<g id="註解">
	<path d="M95.4,9.9H4.6C2.1,9.9,0,12,0,14.5l0,0v70.9c0,2.5,2.1,4.6,4.6,4.6h90.8c2.5,0,4.6-2.1,4.6-4.6V14.5
		C100,12,97.9,9.9,95.4,9.9L95.4,9.9z M17.8,45.8H9.2v-8.3h8.6L17.8,45.8z M9.2,55h8.6v8.3H9.2L9.2,55z M26.9,19.1H73v61.7H26.9
		V19.1z M90.8,45.8h-8.6v-8.3h8.6V45.8z M82.2,55h8.6v8.3h-8.6L82.2,55z M90.8,28.3h-8.6v-9.1h8.6V28.3z M17.7,19.1v9.1H9.2v-9.1
		H17.7z M9.2,72.6h8.6v8.3H9.2V72.6z M82.2,80.9v-8.3h8.6v8.3H82.2z"/>
	<path d="M60.8,48.2l-17.4-10c-1-0.6-2.2-0.2-2.8,0.7c-0.2,0.3-0.3,0.7-0.3,1v20c0,1.1,0.9,2,2,2c0.4,0,0.7-0.1,1-0.3l17.3-10
		c1-0.5,1.3-1.8,0.8-2.7C61.3,48.7,61.1,48.4,60.8,48.2z"/>
</g>
</svg>
