<svg xmlns="http://www.w3.org/2000/svg" viewBox="0 0 100 100"><title>warn</title><g id="註解"><path d="M77.62,79.29H22.38a7.23,7.23,0,0,1-6.13-11.07L43.87,24.1a7.23,7.23,0,0,1,12.26,0L83.75,68.23a7.23,7.23,0,0,1-6.13,11.07ZM50,25.71a2.2,2.2,0,0,0-1.89,1L20.49,70.88a2.23,2.23,0,0,0,1.89,3.41H77.62a2.23,2.23,0,0,0,1.89-3.41h0L51.89,26.75A2.2,2.2,0,0,0,50,25.71Z"/><path d="M52.83,55.59q-.21,2.11-2,2.11H49.2q-1.77,0-2-2.11L45.91,42q-.13-1.31-.13-1.69,0-2.87,4.22-2.87t4.22,2.87q0,.8-.08,1.69ZM50,68.46a3.81,3.81,0,0,1-2.78-1.18,4,4,0,0,1,0-5.65A3.81,3.81,0,0,1,50,60.45a4,4,0,0,1,0,8Z"/></g></svg>