<?xml version="1.0" encoding="utf-8"?>
<!-- Generator: Adobe Illustrator 21.0.0, SVG Export Plug-In . SVG Version: 6.00 Build 0)  -->
<svg version="1.1" id="圖層_1" xmlns="http://www.w3.org/2000/svg" xmlns:xlink="http://www.w3.org/1999/xlink" x="0px" y="0px"
	 viewBox="0 0 100 100" style="enable-background:new 0 0 100 100;" xml:space="preserve">
<style type="text/css">
	.st0{fill:#C8C8C8;}
</style>
<g>
	<ellipse transform="matrix(0.9804 -0.1972 0.1972 0.9804 -12.611 8.1876)" class="st0" cx="34.8" cy="67.4" rx="12.1" ry="10"/>
	<path class="st0" d="M70.4,20.8c-1.9-0.4-3.8,0.8-4.2,2.7c-0.4,1.9,0.8,3.8,2.7,4.1c5.1,1,9.1,5.1,10.2,10.2
		c0.4,1.9,2.2,3.1,4.2,2.7c1.9-0.4,3.1-2.3,2.7-4.2C84.4,28.6,78.2,22.4,70.4,20.8z"/>
	<path class="st0" d="M69.8,6.8c-1.9,0-3.5,1.6-3.5,3.5s1.6,3.5,3.5,3.5C82.6,13.8,93,24.2,93,36.9c0,1.9,1.6,3.5,3.5,3.5
		c1.9,0,3.5-1.6,3.5-3.5c0,0,0,0,0,0C100,20.3,86.5,6.8,69.8,6.8z"/>
	<path class="st0" d="M73.6,50.3c-1.4-0.4-2.3-0.7-1.6-2.6c1.6-4,1.7-7.5,0-9.9c-3.2-4.6-11.9-4.4-21.8-0.1c0,0-3.1,1.4-2.3-1.1
		c1.5-5,1.3-9.2-1.1-11.6c-5.4-5.5-19.8,0.2-32.1,12.8C5.4,47.1,0,57.1,0,65.7c0,16.5,20.8,27.5,41.1,27.5
		c26.6,0,44.3-16.8,44.3-29.3C85.4,56.4,79.2,52.1,73.6,50.3z M41.1,85.8c-16.2,1.6-30.2-5.8-31.3-16.5
		C8.8,58.7,21.1,48.7,37.3,47.1c16.2-1.6,30.2,5.8,31.3,16.4C69.6,74.2,57.3,84.2,41.1,85.8z"/>
</g>
</svg>
