<svg xmlns="http://www.w3.org/2000/svg" viewBox="0 0 100 100">
  <path d="M86.1 40c-.3-2.5-.5-5-1.1-7.4-.9-3.9-4.3-6.7-8.3-7-5.5-.5-11-.8-16.4-.8-6.5 0-13-.1-19.5 0-4.9.1-9.7.4-14.6.6-1.4.1-2.8.2-4.1.5-3.2.6-5.7 2.9-6.7 5.9-.8 2.4-1.2 4.9-1.3 7.4-.1 1.4-.2 2.9-.3 4.3 0 .2-.1.4-.1.6v11.8c.1 1.1.1 2.3.2 3.4.3 2.5.5 5 1 7.5.8 4.1 4.2 7.2 8.4 7.5 5.5.5 11 .8 16.4.8 6.5 0 13 .1 19.5 0 5-.1 10-.4 15.1-.7 1.2 0 2.5-.2 3.7-.4 3.1-.6 5.7-2.8 6.7-5.9.8-2.4 1.2-4.8 1.3-7.3.1-1.5.2-2.9.3-4.4 0-.2.1-.4.1-.7V44c-.2-1.3-.2-2.7-.3-4zM40.7 61.3v-24l23.1 12-23.1 12z" fill="#e62117"/>
</svg>
